<svg id="Capa_1" data-name="Capa 1" xmlns="http://www.w3.org/2000/svg" viewBox="0 0 200 200">
  <defs>
    <style>
      .cls-1 {
        fill: none;
        stroke: #fff;
        stroke-width: 2px;
      }
    </style>
  </defs>
  <title>animations3d</title>
  <g>
    <path class="cls-1" d="M8.845,163.35558V173.628a10.03935,10.03935,0,0,0,10.03956,10.03618H149.99367c11.87744,0,18.933-10.73448,18.933-18.92941V142.50862A31.568,31.568,0,0,0,193.23,111.80618c0-.30931-.03468-.60794-.04518-.91369a31.36478,31.36478,0,0,0-31.54658,5.78415,31.37116,31.37116,0,0,0-31.55013-5.78415c-.00694.30575-.04518.60438-.04518.91369a31.57961,31.57961,0,0,0,24.74468,30.817,19.26309,19.26309,0,0,1-18.7695,14.9657c-17.05685,0-19.27322-19.645-19.27322-19.645A54.61168,54.61168,0,0,0,69.61422,95.35016"/>
    <path class="cls-1" d="M49.37181,96.83017A54.59763,54.59763,0,0,0,8.845,149.578v4.89821"/>
    <path class="cls-1" d="M62.9756,47.28512A19.3503,19.3503,0,1,1,91.01007,73.9648C80.96357,84.24056,61.8917,81.60212,58.60013,94.69366,58.60013,94.69366,46.7524,64.32988,62.9756,47.28512Z"/>
    <path class="cls-1" d="M44.74449,21.36617A11.49,11.49,0,0,0,28.49354,37.61374c6.1141,5.95419,17.39729,4.10956,19.54429,11.8287C48.03783,49.44244,54.62433,31.246,44.74449,21.36617Z"/>
    <path class="cls-1" d="M37.0081,154.02107a8.89323,8.89323,0,0,1,17.78645,0"/>
    <path class="cls-1" d="M74.35964,159.357a7.11706,7.11706,0,0,1-7.11458,7.11458H5.82276"/>
  </g>
</svg>
