<svg id="Capa_1" data-name="Capa 1" xmlns="http://www.w3.org/2000/svg" viewBox="0 0 200 200">
  <defs>
    <style>
      .cls-1 {
        fill: none;
        stroke: #fff;
        stroke-width: 2px;
      }
    </style>
  </defs>
  <title>gameready</title>
  <g>
    <path class="cls-1" d="M126.0836,180.441l-83.17515,7.7882a6.49335,6.49335,0,0,1-7.0738-5.8467L21.14483,27.36266a6.49328,6.49328,0,0,1,5.8467-7.07362l7.41051-.92775"/>
    <path class="cls-1" d="M125.76566,179.58448H52.02833a6.48956,6.48956,0,0,1-6.4864-6.48659V17.38245a6.48953,6.48953,0,0,1,6.4864-6.4864H151.513a6.49047,6.49047,0,0,1,6.49023,6.4864V120.75013"/>
    <g>
      <line class="cls-1" x1="63.31225" y1="50.3869" x2="83.2671" y2="50.3869"/>
      <polyline class="cls-1" points="60.51 58.834 66.898 42.176 73.289 25.519 79.68 42.176 86.069 58.834"/>
    </g>
    <g>
      <polygon class="cls-1" points="149.484 125.935 178.661 142.607 149.299 159.556 120.128 142.884 149.484 125.935"/>
      <polygon class="cls-1" points="178.661 142.607 179 176.487 149.637 193.444 149.299 159.556 178.661 142.607"/>
      <polygon class="cls-1" points="149.299 159.556 149.637 193.444 120.463 176.771 120.128 142.884 149.299 159.556"/>
    </g>
    <path class="cls-1" d="M118.77039,102.23727l1.27747-1.27556a11.89482,11.89482,0,0,0,0-16.8259l-.172-.17582a11.896,11.896,0,0,0-16.824,0l-1.27939,1.27939L100.49693,83.96a11.898,11.898,0,0,0-16.82571,0l-.17582.17582a11.90487,11.90487,0,0,0,0,16.8259l1.2792,1.27556L101.77249,119.239Z"/>
  </g>
</svg>
