<svg id="Capa_1" data-name="Capa 1" xmlns="http://www.w3.org/2000/svg" viewBox="0 0 200 200">
  <defs>
    <style>
      .cls-1 {
        fill: none;
        stroke: #fff;
        stroke-width: 2px;
      }
    </style>
  </defs>
  <title>lowpoly</title>
  <g>
    <polygon class="cls-1" points="120.881 99.395 100.053 81.438 79.224 99.395 63.71 89.943 63.71 110.216 63.71 118.159 100.053 118.159 136.394 118.159 136.394 110.216 136.394 89.943 120.881 99.395"/>
    <g>
      <g>
        <path class="cls-1" d="M55.75792,21.20031a18.09657,18.09657,0,0,0-4.8634,15.76336A18.1011,18.1011,0,0,0,71.39118,15.92661,18.10227,18.10227,0,0,0,55.75792,21.20031Z"/>
        <path class="cls-1" d="M25.30478,45.12184A17.562,17.562,0,0,0,33.904,58.64773a17.58191,17.58191,0,0,0-2.64592-28.40721A17.57759,17.57759,0,0,0,25.30478,45.12184Z"/>
        <path class="cls-1" d="M10.32778,82.815a17.55827,17.55827,0,0,0,13.5096,8.62454A17.58236,17.58236,0,0,0,9.43482,66.81312,17.56668,17.56668,0,0,0,10.32778,82.815Z"/>
        <path class="cls-1" d="M12.68258,123.30589a17.55845,17.55845,0,0,0,15.88625,2.10737A17.5831,17.5831,0,0,0,5.1046,109.18,17.57874,17.57874,0,0,0,12.68258,123.30589Z"/>
        <path class="cls-1" d="M31.92689,159.00738a17.57733,17.57733,0,0,0,15.29162-4.80382A17.58006,17.58006,0,0,0,19.095,149.407,17.57046,17.57046,0,0,0,31.92689,159.00738Z"/>
        <path class="cls-1" d="M64.45649,183.2326a17.57926,17.57926,0,0,0,11.83066-10.81852,17.58354,17.58354,0,0,0-27.51814,7.54A17.57636,17.57636,0,0,0,64.45649,183.2326Z"/>
        <path class="cls-1" d="M89.51119,170.92113A76.49323,76.49323,0,0,1,52.51738,37.889"/>
      </g>
      <g>
        <path class="cls-1" d="M144.34668,21.20031a18.09347,18.09347,0,0,1,4.8634,15.76706,18.09744,18.09744,0,0,1-20.49129-21.03706A18.0916,18.0916,0,0,1,144.34668,21.20031Z"/>
        <path class="cls-1" d="M174.80148,45.12554a17.56622,17.56622,0,0,1-8.59918,13.52589,17.578,17.578,0,0,1,2.64776-28.40721A17.58229,17.58229,0,0,1,174.80148,45.12554Z"/>
        <path class="cls-1" d="M189.77867,82.815a17.5675,17.5675,0,0,1-13.50589,8.62806,17.57916,17.57916,0,0,1,14.40421-24.63A17.59691,17.59691,0,0,1,189.77867,82.815Z"/>
        <path class="cls-1" d="M187.422,123.30589a17.55713,17.55713,0,0,1-15.88625,2.10737A17.58223,17.58223,0,0,1,195,109.18372,17.58726,17.58726,0,0,1,187.422,123.30589Z"/>
        <path class="cls-1" d="M168.17771,159.00738a17.55008,17.55008,0,0,1-15.28977-4.80382,17.58471,17.58471,0,0,1,28.12721-4.79289A17.58276,17.58276,0,0,1,168.17771,159.00738Z"/>
        <path class="cls-1" d="M135.64811,183.2326a17.55283,17.55283,0,0,1-11.827-10.815,17.58122,17.58122,0,0,1,27.51611,7.54005A17.58655,17.58655,0,0,1,135.64811,183.2326Z"/>
        <path class="cls-1" d="M110.59341,170.92483A76.4944,76.4944,0,0,0,147.58889,37.89271"/>
      </g>
    </g>
  </g>
</svg>
