<svg id="Capa_1" data-name="Capa 1" xmlns="http://www.w3.org/2000/svg" viewBox="0 0 270 150">
  <defs>
    <style>
      .cls-1 {
        fill: #ffb026;
      }

      .cls-2 {
        fill: #4a32c4;
      }
    </style>
  </defs>
  <title>ferreteriamaritimos</title>
  <g>
    <path id="Izquierda" class="cls-1" d="M135.21789,87.16617v-.04238L67.31783,42.05057H28.5L62.40316,79.80636,88.72948,90.08,97.719,121.67162l28.89474,21.31791h17.20843l28.89473-21.31789,2.3013-8.08538Zm-10.27368,18.196-3.981,2.31158H105.9379l-3.72421-2.31158-1.66947-8.47578,3.38-2.33212,21.01995,8.20224Zm13.22738,14.64h-5.90738l-2.82526-4.10947h11.55789Z"/>
    <polygon id="derecha" class="cls-2" points="242 42.051 208.097 79.806 181.771 90.08 176.98 106.913 135.282 79.234 135.218 79.191 79.269 42.051 79.355 42.051 87.477 30.683 96.406 30.683 110.792 6.671 159.708 6.671 174.094 30.683 183.023 30.683 191.145 42.051 242 42.051"/>
  </g>
</svg>
