<svg id="Capa_2" data-name="Capa 2" xmlns="http://www.w3.org/2000/svg" viewBox="0 0 270 150">
  <title>tiendabartola</title>
  <g>
    <path d="M66.379,6.64035c-3.00572,1.385-7.07228,5.51048-13.5552,13.732-6.925,8.78142-14.0267,14.73393-22.30716,18.71208a24.94375,24.94375,0,0,1-11.19779,3.00572c-2.59317.11788-3.56561.29468-3.83082.61883-.442.53042-.70722,6.89548-.38308,9.42971a3.66785,3.66785,0,0,0,1.06084,2.50477c.85457.8251.943.85457,2.85839.67776a39.69043,39.69043,0,0,0,15.08753-4.44965,62.34814,62.34814,0,0,0,15.559-11.16831,22.77247,22.77247,0,0,1,2.41636-2.21009c0,.0884-.53042,1.53233-1.20818,3.24146-.6483,1.67967-2.77,7.16069-4.68539,12.19969C44.2781,57.94387,42.569,62.423,42.42163,62.865c-.32415.76616-.32415.76616-1.79754.38308a27.49927,27.49927,0,0,0-14.38031.79563c-6.89548,2.269-13.34894,8.36887-17.3271,16.38412A37.84128,37.84128,0,0,0,4.73225,97.60759c-.32415,10.75576,1.5618,16.14838,9.45918,26.78627a37.64664,37.64664,0,0,0,19.00676,13.67308c5.59889,1.94488,8.22153,2.35743,15.20541,2.35743,6.65973,0,9.57705-.41255,14.14456-2.00382,1.14925-.38308,2.328-.79563,2.65211-.9135.32415-.0884-.02947.14734-.76616.55989a18.33,18.33,0,0,1-3.212,1.20818,31.20026,31.20026,0,0,0-3.654,1.20818,26.33749,26.33749,0,0,1-7.39643,1.59127,2.60848,2.60848,0,0,0-1.44393.26521,1.53745,1.53745,0,0,1-.76616.41255c-.32415.0884-.53042.05893-.47148-.02947a13.06533,13.06533,0,0,0-3.3004-.23574,27.16047,27.16047,0,0,1-8.89929-1.11978c-6.15878-1.5618-10.46109-3.3004-13.93829-5.62836a53.01,53.01,0,0,1-5.09794-4.47911,36.83746,36.83746,0,0,1-6.18825-7.45537c-1.44392-2.18062-2.68157-4.1255-2.74051-4.27284a62.87594,62.87594,0,0,0-2.82891-6.0409,5.4724,5.4724,0,0,1-.70723-1.32606c-.79563-2.06275,0,2.06275.8251,4.39071.47148,1.32606,1.17871,3.24147,1.56179,4.30231a12.70955,12.70955,0,0,0,.8251,2.06275,14.77086,14.77086,0,0,1,1.76808,2.50476,8.26772,8.26772,0,0,0,.943,1.5618,46.2414,46.2414,0,0,0,8.36886,8.66355A46.90053,46.90053,0,0,0,28.21812,141.22a16.278,16.278,0,0,1,2.50477,1.03137c1.00191.61883,4.98007,1.59127,8.30993,2.03329,11.05045,1.47339,25.04767-1.4734,30.11614-6.33559a32.33241,32.33241,0,0,1,2.77-2.328,16.44186,16.44186,0,0,0,2.12168-1.76807,3.50271,3.50271,0,0,1,1.20819-.91351c.41255,0,3.35933-3.153,5.33368-5.65782a71.12138,71.12138,0,0,0,5.09793-7.48483c0-.11788,1.00191-2.21009,2.21009-4.65592,6.54186-13.23107,7.95632-25.28342,4.83273-41.13712C90.27741,61.77469,83.824,51.75562,75.86763,47.9248l-2.00381-.97244.884-.70723a17.23155,17.23155,0,0,0,5.06847-8.19206c.17681-.55989.442-1.5618.61883-2.21009a25.72251,25.72251,0,0,0,.32414-4.56751,45.97437,45.97437,0,0,0-4.71485-18.91836C73.12712,6.66981,70.1214,4.90174,66.379,6.64035ZM70.59289,19.341c1.91541,4.47911,2.29849,5.74623,2.74051,9.135.67776,5.15687-.26521,10.43162-2.2985,12.78905a10.45454,10.45454,0,0,1-6.60079,3.15305c-1.20819.11788-2.03328.08841-2.15116-.11787A15.36393,15.36393,0,0,1,63.609,40.67571a129.46523,129.46523,0,0,0,5.42208-14.73392c1.29659-4.44965,1.26712-4.53805-1.91541-4.30231a16.42586,16.42586,0,0,0-2.77.38308c-.35361.11787,0-.55989,1.00191-1.97434,2.09222-2.91732,3.24146-4.39071,3.47721-4.39071A21.82751,21.82751,0,0,1,70.59289,19.341ZM67.52823,58.35642c5.24528,1.85647,10.10747,6.71867,12.848,12.81851,2.5637,5.71676,3.62455,11.37459,3.62455,19.03623-.02947,14.233-4.538,26.079-13.26053,34.71312a30.75287,30.75287,0,0,1-12.61224,7.5143c-13.14266,4.33177-26.25585,2.03328-36.03918-6.30612-2.77-2.35743-6.12931-6.12931-6.74814-7.63217a3.7744,3.7744,0,0,0-.943-1.385c-.26521-.20627-.32414-.35361-.11787-.38308.26521,0,.26521-.23574-.02947-.943a41.86516,41.86516,0,0,1-1.20818-4.36124c-.41255-1.85648-.97244-4.18444-1.20818-5.15688-.442-1.85647-.8251-10.60842-.50095-11.16831a22.36846,22.36846,0,0,0,.85457-2.85838c1.11977-4.42018,3.30039-7.92685,8.07419-13.05426,1.79753-1.88594,4.12549-3.71295,4.77379-3.71295a8.49562,8.49562,0,0,0,1.827-.73669,15.99536,15.99536,0,0,1,8.10366-1.5618,15.72613,15.72613,0,0,1,3.18253.32415c.23574.14734.0884,1.00191-.64829,3.15306-4.24337,12.6417-6.63027,30.17507-5.45156,40.07627.41255,3.44774,1.32606,6.365,2.15116,6.92494,1.29658.8251,2.85838-.41255,1.91541-1.53232-.55989-.70723-.442-12.87745.1768-16.44306l.442-2.65211-.14734,2.06275c-.55989,7.6027-.55989,7.63217-.26521,11.34512.23574,3.06466.58936,4.30231,1.5618,5.45155l.70723.884-.23575-1.62073a98.09521,98.09521,0,0,1,.35362-16.17785c.41255-3.15306,3.15306-14.79286,4.597-19.62559a26.59917,26.59917,0,0,0,.67776-2.711c.20628-1.53233,1.5618-5.09794,1.97435-5.09794.35361,0,1.94487,2.2985,2.74051,4.00763,3.3888,7.16069,2.00381,15.618-3.09413,19.00676l-.73669.501.58935,1.11977a26.76391,26.76391,0,0,0,2.41637,3.41827c1.23765,1.53233,1.76807,2.44583,1.6502,2.77-.14734.38308-.05894.442.41255.29468.38308-.11787.76616.05894,1.20818.55989a3.02365,3.02365,0,0,0,2.711,1.17871c.85457-.26521,3.53614-3.06465,4.74432-4.92113a27.59459,27.59459,0,0,0,3.38881-8.30993,35.01191,35.01191,0,0,0-.02947-11.22725,31.2435,31.2435,0,0,0-10.078-16.97348l-1.827-1.5618,2.21009-4.33177c2.15115-4.2139,2.269-4.33177,2.91731-4.03709a1.86654,1.86654,0,0,0,1.76807-.17681A15.20519,15.20519,0,0,1,67.52823,58.35642ZM31.16491,72.23577c0,.14734-.29468.29468-.64829.29468-.55989,0-.58936-.05894-.23575-.29468C30.84076,71.85269,31.16491,71.85269,31.16491,72.23577Zm-3.97816.58936a.80636.80636,0,0,1-.67776.26521c-.41255,0-.38308-.05894.0884-.26521C27.393,72.501,27.393,72.501,27.18675,72.82513Zm-1.03138,1.29658c0,.26521-.20627.35362-.58935.26521-.32415-.0884-.501-.26521-.41255-.41255C25.38921,73.56182,26.15537,73.6797,26.15537,74.12171ZM24.682,74.5932a.32275.32275,0,0,1-.32414.29468c-.14734,0-.20628-.14734-.11788-.29468.08841-.17681.23575-.29468.32415-.29468C24.62305,74.29852,24.682,74.41639,24.682,74.5932Zm-3.50667,1.385c-.11787.501-.41255.8251-.70723.8251-.26521,0-.47149-.14734-.41255-.29468.02947-.17681.23574-.26521.442-.26521.20627.02947.32414-.02947.23574-.11787-.14734-.11787.35361-.943.55989-.943C21.35212,75.18256,21.29318,75.53617,21.17531,75.97819Zm1.7386-.35362c-.20627.26521-.442.38309-.55989.29468-.0884-.0884.02947-.29468.26521-.442C23.23806,75.06468,23.32646,75.12362,22.91391,75.62457Zm-5.24528,4.0371c-.20627.20627-.35361.23574-.35361.05893,0-.41255.35361-.76616.55989-.55988C17.93385,79.24912,17.84544,79.48486,17.66863,79.66167Zm-4.47911,5.54a.29529.29529,0,0,1-.29468.29468.31689.31689,0,0,1-.29467-.29468.29528.29528,0,0,1,.29467-.29467A.2784.2784,0,0,1,13.18952,85.20162ZM9.2703,99.55247c-.08841.29467-.14734.11787-.14734-.35362,0-.50095.05893-.70723.14734-.53042A2.227,2.227,0,0,1,9.2703,99.55247Zm27.99445,1.62073c-.0884.20627-.14734.05893-.14734-.35362s.05894-.55989.14734-.38308A1.55545,1.55545,0,0,1,37.26475,101.1732Zm-27.22829,5.982a7.49152,7.49152,0,0,1,.38308,1.85647c-.32414.29468-1.11977-3.35933-1.20818-5.54l-.11787-2.50477L9.3587,103.177A34.81945,34.81945,0,0,0,10.03646,107.15517Zm26.93361-4.80326c-.0884.23574-.1768.14734-.1768-.17681-.02947-.32414.05893-.501.14734-.38308A.59693.59693,0,0,1,36.97007,102.35191Zm39.63426,28.37754c-.08841.50095-.32415.73669-.7367.73669-.58936,0-.58936-.02947.0884-.73669a7.3729,7.3729,0,0,1,.7367-.7367A2.22616,2.22616,0,0,1,76.60433,130.72945Zm-2.269,1.91541a2.56952,2.56952,0,0,1-.8251.61882c-.61882.29468-.61882.26521.05894-.29468C74.30584,132.29124,74.63,132.17337,74.3353,132.64486Zm-3.09412,2.50476c-.38308.41255-.76616.6483-.85457.55989s.14734-.41255.55989-.70723C71.94841,134.20665,72.06628,134.26559,71.24118,135.14962Zm-2.35743,1.26712a6.10662,6.10662,0,0,1-2.21009,1.23765c-.0884,0-.14734-.20627-.14734-.442,0-.26521.26521-.442.70723-.442a1.27562,1.27562,0,0,0,.91351-.29467C68.35333,136.12206,68.88375,136.09259,68.88375,136.41674Zm-7.21962,3.88976a1.72865,1.72865,0,0,1-1.00191.58935c-.29468,0-.14734-.23574.41255-.58935C62.19455,139.5698,62.34189,139.5698,61.66413,140.3065Zm-2.35743.85456a4.512,4.512,0,0,1-1.17871.442l-.884.17681.7367-.442C58.77628,140.86639,59.74872,140.71905,59.3067,141.16106Zm-11.84607,2.2985a2.227,2.227,0,0,1-.884,0c-.29468-.08841-.11787-.14734.35362-.14734C47.43116,143.31222,47.63743,143.37115,47.46063,143.45956Z"/>
    <path d="M233.10806,11.00159a2.88933,2.88933,0,0,0-1.41446.9135c-1.70913,2.62264-13.43734,41.04871-17.15028,56.16572a50.41059,50.41059,0,0,1-1.73861,6.12931c-.442.70723-2.711,2.00381-2.97625,1.7386a4.829,4.829,0,0,1,.17681-1.85647,58.39454,58.39454,0,0,0,0-18.12273c-1.59127-7.77951-4.18444-10.78523-9.31184-10.84417-1.53233,0-1.94488.11787-2.711.76617-.501.41255-.91351.61882-.91351.442a4.46613,4.46613,0,0,0-.9135-1.35552,2.92031,2.92031,0,0,0-3.62455-.73669c-3.12359,1.17871-9.1645,12.61224-12.406,23.54481a85.50413,85.50413,0,0,0-3.88975,23.75108l-.14734,6.18825-1.17872,1.85647c-2.328,3.62455-5.51049,6.30612-7.75,6.57133l-.85457.11787-.85457-3.3888a18.64051,18.64051,0,0,1-.64829-7.367c.61883-13.67308,5.33368-33.2692,12.81851-53.51361l.67776-1.827,6.80708-1.32605a88.3507,88.3507,0,0,1,9.90119-1.50286c5.39262-.26521,7.04282-.501,6.866-.943-.0884-.23574,0-.41255.17681-.41255a.62892.62892,0,0,1,.501.442c.29468.76616,4.24337.47148,4.24337-.29468,0-.23574.23574-.32415.58936-.23574.32414.0884.50095.26521.41255.41255-.23574.38308.53042.32414,1.97434-.17681,1.14925-.38308,1.23765-.38308.7367,0-.55989.41255-.53042.442.29468.442a2.088,2.088,0,0,0,1.26712-.38308c.32414-.29468.41255-.29468.53042,0,.1768.47148,2.00381.47148,4.50858-.02947,1.76807-.32415,1.85647-.38308,1.0019-.58936-.501-.11787-2.23955-.38308-3.83082-.61882l-2.91731-.442,3.24146.14734a22.46054,22.46054,0,0,1,4.18444.442c1.11977.41255,2.15115,0,2.15115-.85457,0-1.32606-2.59317-2.62264-7.01335-3.47721-2.79944-.53042-20.657-.85457-27.16935-.442-2.35743.11788-4.30231.23575-4.30231.23575-.02947-.02947.79563-1.827,1.827-4.00763,2.328-4.89166,2.35742-5.42208.53042-7.367-1.62073-1.70914-2.85838-2.35743-4.62645-2.35743a2.1016,2.1016,0,0,0-2.18062,1.03138c-1.03138,1.23764-2.269,3.654-4.65592,9.135-1.73861,3.94869-1.85648,4.1255-2.82892,4.33177-2.91731.61883-23.95736,1.53233-35.03727,1.5618-11.6398,0-11.6398,0-12.49436-.67776-1.06085-.8251-1.41446-.8251-2.41637.05893-.76616.64829-.79563.7367-.41255,1.62073a3.40081,3.40081,0,0,0,1.73861,1.6502c.76616.41255,1.09031.70723.76616.67776a10.28121,10.28121,0,0,0-1.32605.02947l-.7367.05894.7367.41255a41.67083,41.67083,0,0,0,6.18825,2.35742,66.3645,66.3645,0,0,0,9.57705.7367c8.4278.29468,15.17594.7367,18.56474,1.20818,1.14924.14734,4.2139.35362,6.866.442,2.62264.11787,4.77379.23574,4.77379.23574,0,.02947-.64829,1.85648-1.44393,4.0371a181.52319,181.52319,0,0,0-9.78332,42.55157c-.35362,3.62454-.41255,3.86029-1.20818,4.50858a6.96766,6.96766,0,0,0-1.385,1.79754c-1.06084,2.09221-3.77189,6.6892-5.15688,8.72248l-1.41445,2.06275.17681-2.50477a48.8865,48.8865,0,0,1,.73669-5.00953c.29468-1.385.943-4.62645,1.47339-7.21962,1.94488-9.69493,2.4753-11.84608,3.59508-14.79286a24.50959,24.50959,0,0,0,1.14925-3.62455c0-.32414.0884-.58936.23574-.58936.11787,0,.23574-.55988.29468-1.26711.05893-1.20818-.02947-1.41446-1.7386-3.24147a8.71844,8.71844,0,0,0-2.53424-2.15115c-1.29658-.35361-4.155-5.45155-5.1274-9.22343a33.78138,33.78138,0,0,1-.76617-5.62836c-.20627-3.83082-.53042-4.42018-2.68157-5.00954-1.73861-.442-8.48674-.53042-8.92876-.0884-.23574.23574-.29468,1.44392-.17681,4.27284.14734,4.00762.70723,6.60079,2.00382,9.135l.55989,1.09031-1.00191,5.54c-1.5618,8.36886-4.42018,19.56664-5.65783,21.983a6.97227,6.97227,0,0,0-.8251,1.97434c.11787,0,0,.23575-.23574.501a6.90362,6.90362,0,0,0-.8251,1.56179c-.20627.55989-1.47339,3.06466-2.77,5.56943-2.77,5.27474-3.03519,5.15687-1.79754-.7367.67776-3.32987,1.41446-6.18825,5.18634-20.21494.61883-2.35743,2.15116-7.19016,3.38881-10.7263,2.50476-7.19015,2.4753-7.01335.35361-8.72248-1.76807-1.44393-2.97625-2.00381-4.3023-2.00381a1.83987,1.83987,0,0,0-1.79754.884c-2.21009,3.00572-7.13122,18.71208-8.86982,28.28913-.55989,3.12359-.7367,3.62455-2.97626,7.77951-3.91922,7.27856-7.92685,12.96586-8.78142,12.43544-.58935-.38309-.9135-2.44584-.9135-5.982a62.11117,62.11117,0,0,1,4.62645-22.33662c3.56561-8.9877,6.925-14.40978,11.964-19.38985l3.212-3.212-.1768-1.29659a8.9806,8.9806,0,0,0-2.41637-4.80326c-1.79753-1.41445-3.86028-.501-7.95631,3.62455-5.18635,5.21581-11.25672,15.41168-13.90883,23.4564-3.15306,9.57705-4.155,21.74727-2.41636,29.32051.79563,3.47721,1.70913,4.92113,4.27284,6.65973,2.50476,1.70914,3.59507,1.827,5.982.61883a13.90039,13.90039,0,0,0,5.982-5.982l1.59127-2.65211.1768,1.5618a10.906,10.906,0,0,0,2.23956,5.56942c.442.442,1.00191,1.00191,1.20818,1.26712.501.61882,2.79945.64829,3.32987,0a7.18109,7.18109,0,0,1,1.47339-1.03138c1.70913-.85457,3.77188-4.2139,5.74623-9.40024.64829-1.70914,1.00191-2.35743,1.14925-2.00381.23574.61882,1.85647-2.35743,2.59317-4.7738,1.09031-3.68348,1.35552-4.44964,2.79944-8.693.8251-2.44583,2.44583-7.4259,3.62455-11.10938l2.12168-6.6892,1.00191.884a22.50985,22.50985,0,0,0,2.15115,1.59126l1.11978.70723-.85457,2.711a124.17061,124.17061,0,0,0-3.80135,18.71208c-.55989,5.15687-.9135,15.117-.55989,17.03242.41255,2.35742,1.62073,4.56751,2.91732,5.33368a7.26189,7.26189,0,0,0,5.71676,0c1.62073-.79563,2.44583-2.09222,4.89166-7.83845,1.94488-4.538,2.21009-5.00953,2.3869-4.24337.11787.501.41255,1.85647.67776,3.03519,1.23765,5.65782,4.597,9.28237,9.22343,10.04853,4.77379.76617,8.66355-1.14924,11.72821-5.80516a4.311,4.311,0,0,1,1.0019-1.23765,7.42033,7.42033,0,0,1,1.09031,1.70913,5.82765,5.82765,0,0,0,5.27475,3.53615c1.47339.11787,1.94488.05893,1.79754-.20628-.11787-.17681-.08841-.32415.0884-.32415a.46382.46382,0,0,1,.38308.35362c.08841.23574.35362.26521,1.03138,0a3.24011,3.24011,0,0,1,1.53232-.14734,1.45512,1.45512,0,0,0,1.26712-.501A11.63529,11.63529,0,0,1,192.354,110.485c2.328-1.41446,4.44964-4.096,6.83654-8.66355,3.86029-7.4259,4.44964-8.66355,6.365-13.61415l1.97435-5.1274,2.06275-.67776c1.14924-.38308,2.09221-.67776,2.09221-.64829.02947.02946-.20627,2.29849-.53042,5.06847-.8251,6.92494-.884,15.61795-.14734,18.85942,1.09031,4.65592,3.38881,7.95632,6.07038,8.693a10.778,10.778,0,0,0,5.12741-.05893c1.94487-.58936,4.62645-3.32987,6.15878-6.27666l1.26711-2.47529.70723,1.326a7.90069,7.90069,0,0,0,2.88785,2.77c2.79945,1.85647,3.74242,1.91541,6.48293.38308,2.53423-1.41446,3.53614-2.44583,5.51048-5.74623,1.4734-2.44583,1.6502-2.62264,1.6502-1.827a12.72065,12.72065,0,0,0,2.269,6.15878c.55989.64829,1.11977,1.35552,1.29658,1.53233.41255.53042,2.77.47149,3.212-.02947a5.61075,5.61075,0,0,1,1.56179-1.03137c1.827-.91351,3.97816-4.44965,5.923-9.84226.9135-2.53424,4.30231-13.93829,4.44964-14.9402a5.09211,5.09211,0,0,1,.29468-.97244c.55989-1.29659-.9135-1.91541-1.76807-.7367-1.76807,2.53424-2.79944,4.42018-5.80516,10.54949-1.88595,3.80135-3.62455,7.19016-3.88976,7.5143-.442.55989-.47148.501-.29468-1.03137a96.34233,96.34233,0,0,1,2.74051-12.3765c.79563-3.00572,2.06275-7.75,2.79945-10.54949.76616-2.79944,2.35743-7.92685,3.56561-11.404s2.21009-6.54186,2.21009-6.77761c0-.61882-1.59127-2.328-3.15306-3.35933-1.5618-1.06084-3.53615-1.23765-4.36125-.442-2.18062,2.21009-7.83844,20.03814-9.31183,29.43838-.29468,2.00381-.70723,2.97625-2.56371,6.45346-4.06656,7.69111-7.66164,12.848-8.89929,12.848-.70722,0-.884-.7367-1.09031-4.42018-.73669-13.79095,6.89548-33.71121,16.61987-43.17039,3.41827-3.35934,3.59508-3.80136,2.41636-6.54186-1.94488-4.597-4.597-4.39071-9.69492.76616-6.63027,6.6892-13.26053,19.03623-15.559,29.0553a64.61833,64.61833,0,0,0-1.67967,15.23487l-.05894,6.12931-.85456.6483c-.47149.35361-2.06275,1.827-3.56561,3.24146a20.466,20.466,0,0,1-3.00572,2.59317c-.91351,0-1.5618-7.16069-1.14925-12.67117.14734-2.03329.58936-5.59889,1.00191-7.95632,1.56179-9.34131,7.809-34.47738,10.57895-42.72838,3.83082-11.37459,8.39834-26.99255,8.48674-28.908a3.40069,3.40069,0,0,0-2.18062-3.24146A6.8945,6.8945,0,0,0,233.10806,11.00159Zm-29.26157,25.1066c0,.08841-.11787.23574-.29468.32415-.14734.0884-.29468.02947-.29468-.11787a.32276.32276,0,0,1,.29468-.32415C203.72862,35.99032,203.84649,36.04926,203.84649,36.10819Zm-3.27093,19.09517a64.5185,64.5185,0,0,1,.884,12.31756v5.15687l-.58936-1.09031c-1.11977-2.18062-1.53232-4.77379-1.56179-10.54949-.02947-5.30421.17681-7.66164.67776-7.66164C200.13354,53.37635,200.39875,54.20145,200.57556,55.20336Zm-7.95632,18.27006A16.66336,16.66336,0,0,0,198.778,80.752c.32414.17681.26521.7367-.20628,2.85838-.35361,1.44392-.943,4.096-1.32605,5.89357-1.50286,6.866-6.74814,15.73583-9.75386,16.502-1.09031.26521-2.09221-.76616-2.74051-2.82891-.41255-1.29659-.50095-2.68157-.47148-7.07228.02947-8.48674.85456-13.08373,4.2139-23.78055,1.00191-3.1236,1.79754-5.7757,1.827-5.89357A18.22785,18.22785,0,0,1,191.028,68.847,31.35766,31.35766,0,0,0,192.61924,73.47342Zm-88.58035,37.27683a1.55566,1.55566,0,0,1-.73669,0c-.20628-.08841-.05894-.14734.35361-.14734S104.2157,110.66184,104.03889,110.75025Zm132.9,0a2.227,2.227,0,0,1-.884,0c-.29468-.08841-.11787-.14734.35362-.14734C236.90941,110.60291,237.11569,110.66184,236.93888,110.75025Zm-46.05825.20627c0,.08841-.11787.23574-.29467.32415-.14734.0884-.29468.02947-.29468-.11787a.32276.32276,0,0,1,.29468-.32415C190.76276,110.83865,190.88063,110.89759,190.88063,110.95652Z"/>
    <path d="M100.0018,118.64763a5.26894,5.26894,0,0,0-3.15306,3.03519c-.501,1.50286-.20628,4.597.50095,5.56942a4.85057,4.85057,0,0,0,4.44965,2.15115c2.328,0,3.03518-.32414,3.03518-1.44392v-.85457l-1.47339.442c-1.76807.50095-3.18253.17681-4.096-.97244a4.50259,4.50259,0,0,1,.61883-5.8641,2.422,2.422,0,0,1,2.44583-.64829,9.23877,9.23877,0,0,1,2.00381.35361c.41255.17681.501.05894.501-.67776,0-.79563-.14734-.943-1.09031-1.20818A5.2737,5.2737,0,0,0,100.0018,118.64763Z"/>
    <path d="M110.787,118.58869c-2.09222.6483-3.53614,3.41827-3.18253,6.18825.35362,3.00572,2.09222,4.62645,4.9506,4.62645,3.44774,0,5.24528-1.97434,5.24528-5.71676A5.12007,5.12007,0,0,0,110.787,118.58869Zm3.50667,1.67967c1.50286.8251,2.09222,4.597.943,6.12931a4.98408,4.98408,0,0,1-1.41445,1.20818,2.01229,2.01229,0,0,1-2.00382,0c-2.6521-.943-3.12359-5.51048-.73669-7.16068A3.71758,3.71758,0,0,1,114.2937,120.26836Z"/>
    <path d="M122.33842,118.61816a2.9978,2.9978,0,0,0-1.88594,2.88785c0,1.385.64829,2.06275,2.77,3.00572a4.6135,4.6135,0,0,1,1.88594,1.26712,1.40634,1.40634,0,0,1-.9135,1.97434,4.79049,4.79049,0,0,1-2.97625-.73669c-.53042-.501-.76617-.26521-.76617.70723,0,1.20818.8251,1.67966,2.97625,1.67966,2.4753,0,3.83082-1.14924,3.80136-3.18252-.02947-1.35552-.7367-2.21009-2.68158-3.15306-2.269-1.09031-2.68157-1.6502-1.88594-2.50477.47149-.53042.8251-.61883,1.76807-.501a9.907,9.907,0,0,1,1.70914.35361c.41255.17681.501.05894.501-.67776,0-.50095-.11787-1.00191-.29468-1.09031A6.62348,6.62348,0,0,0,122.33842,118.61816Z"/>
    <path d="M142.84805,118.52976a2.83834,2.83834,0,0,0-2.06275,2.77c0,1.62073.47148,2.15115,2.68157,3.24146,1.5618.73669,1.91541,1.03137,1.97435,1.67967a1.1839,1.1839,0,0,1-.61883,1.26711c-.79563.501-1.7386.41255-3.212-.35361-.8251-.38308-.8251-.38308-.8251.64829,0,1.26712.67776,1.62073,3.09412,1.62073a3.011,3.011,0,0,0,2.5637-.85456,2.25965,2.25965,0,0,0,.97244-2.18062c0-1.62074-.61882-2.3869-2.6521-3.3004-1.79754-.79564-2.328-1.385-2.06275-2.18062.29467-.97244,1.94487-1.14925,3.77188-.47149.41255.17681.501.05894.501-.67776,0-.50095-.11787-1.00191-.29467-1.09031A7.2918,7.2918,0,0,0,142.84805,118.52976Z"/>
    <path d="M222.02815,118.61816c-2.44583.9135-3.56561,2.79945-3.3888,5.80517.11787,2.15115.58935,3.06465,2.09221,4.2139.85457.61882,3.35934.943,5.06847.64829.943-.17681,1.03138-.29468,1.03138-1.17871v-.97244l-1.35552.442a3.0705,3.0705,0,0,1-2.59317.02946c-2.88785-1.0019-3.18253-5.77569-.41255-7.21962a5.64658,5.64658,0,0,1,4.00762.05894c.55989.17681.6483.0884.6483-.70723,0-1.00191-.29468-1.17871-2.44584-1.385A6.30607,6.30607,0,0,0,222.02815,118.61816Z"/>
    <path d="M242.83245,118.41189a3.50078,3.50078,0,0,0-1.385.8251,2.34739,2.34739,0,0,0-.76617,2.15115c0,1.67967.17681,1.88594,2.74051,3.15306,1.50286.70723,1.85648,1.03137,1.91541,1.67967a1.18388,1.18388,0,0,1-.61882,1.26711c-.79563.501-1.7386.41255-3.212-.35361-.8251-.38308-.8251-.38308-.8251.64829,0,1.26712.67777,1.62073,3.09413,1.62073a2.99335,2.99335,0,0,0,2.53423-.8251,2.35172,2.35172,0,0,0,.97244-2.18062c.02947-1.62073-.55989-2.41636-2.4753-3.27093-1.6502-.70723-2.35742-1.326-2.35742-2.00381,0-1.06084,2.09221-1.44393,3.91922-.70723.41255.17681.50095.05894.50095-.67776s-.1768-.943-.9135-1.20818A5.79106,5.79106,0,0,0,242.83245,118.41189Z"/>
    <path d="M131.35559,122.53739c-.85457,2.23955-1.79754,4.71485-2.09222,5.481l-.55989,1.41446,1.06084-.0884c1.00191-.08841,1.11978-.20628,1.67967-1.6502l.58936-1.53233h3.68348l.64829,1.62073c.61882,1.50286.7367,1.62073,1.6502,1.62073a2.31305,2.31305,0,0,0,1.00191-.11787c0-.0884-.943-2.53423-2.09222-5.45155l-2.09222-5.33368h-1.91541Zm3.03518-.14734c.23575.70722.53042,1.50286.6483,1.76807.1768.47148.02946.53042-1.11978.53042h-1.35552l.61882-1.76807a10.04884,10.04884,0,0,1,.67776-1.76807A4.95026,4.95026,0,0,1,134.39077,122.39005Z"/>
    <path d="M152.86711,123.95184v5.45155h2.06275V127.1933c0-2.18062,0-2.21008.7367-2.21008,2.03328,0,3.97816-1.67967,3.97816-3.44774,0-2.21009-1.23765-3.03519-4.56752-3.03519h-2.21009Zm4.36124-3.32986c.97244.79563.08841,2.38689-1.47339,2.6521-.8251.14734-.8251.14734-.8251-1.59126v-1.76807l.97244.20627A5.01087,5.01087,0,0,1,157.22835,120.622Z"/>
    <path d="M164.71319,120.03262c-.53042,1.35552-3.09413,7.95632-3.50668,9.01716-.11787.29468.11788.38308.943.29468,1.03138-.08841,1.14925-.17681,1.67967-1.6502l.55989-1.53233h3.713l.58936,1.53233c.55989,1.47339.64829,1.56179,1.70913,1.6502.8251.0884,1.06084,0,.943-.29468-.0884-.20628-1.03137-2.68157-2.12168-5.481l-2.00382-5.06847h-.97243C165.36148,118.50029,165.24361,118.61816,164.71319,120.03262Zm1.6502,4.597a4.22923,4.22923,0,0,1-1.29659,0,6.93242,6.93242,0,0,1,.53042-1.827l.6483-1.73861.64829,1.73861.64829,1.7386Z"/>
    <path d="M173.78928,123.92237v5.481h1.76807V127.046a5.47257,5.47257,0,0,1,.26522-2.35743,10.40027,10.40027,0,0,1,1.70913,2.35743c1.35552,2.23955,1.44392,2.328,2.53424,2.35742.58935,0,1.09031-.0884,1.09031-.20627a25.02338,25.02338,0,0,0-1.53233-2.5637c-1.14925-1.73861-1.44393-2.3869-1.11978-2.4753a3.041,3.041,0,0,0,1.00191-4.80326c-.6483-.61883-1.09031-.70723-3.24147-.8251l-2.4753-.08841Zm3.212-3.77188c2.03328.41255,1.67967,2.77-.41255,2.77h-1.03138v-1.4734C175.55735,119.88528,175.55735,119.88528,177.00128,120.15049Z"/>
    <path d="M186.34259,118.7655c-.26521.41255-4.00763,10.13694-4.00763,10.40215,0,.11787.442.23574.97244.23574.943,0,1.03137-.0884,1.56179-1.62073l.53043-1.6502,1.91541.08841,1.91541.0884.61882,1.53233c.53042,1.44392.64829,1.56179,1.53233,1.56179.58936,0,.97244-.14734.943-.38308,0-.17681-.9135-2.62264-2.00381-5.36315-1.91541-4.89166-2.00382-5.00953-2.88785-5.09793C186.93194,118.50029,186.431,118.58869,186.34259,118.7655Zm1.67966,4.1255a16.17633,16.17633,0,0,1,.501,1.62073c0,.0884-.53042.17681-1.17872.17681s-1.17871-.11787-1.17871-.23574a9.28155,9.28155,0,0,1,1.14925-3.00573A4.534,4.534,0,0,1,188.02225,122.891Z"/>
    <path d="M196.18485,119.237c0,.67776.0884.73669,1.47339.73669h1.47339v9.42971h1.76807v-9.42971h1.32606c1.20818,0,1.326-.05893,1.326-.73669v-.7367h-7.367Z"/>
    <path d="M206.49859,122.50792c0,4.47911.29468,5.53995,1.73861,6.39452a7.5774,7.5774,0,0,0,5.039.11787,4.979,4.979,0,0,0,1.385-1.35552c.61882-.9135.67776-1.326.67776-5.06847v-4.096h-1.76807V122.007a20.22853,20.22853,0,0,1-.29468,4.27284,2.467,2.467,0,0,1-4.42018.38308c-.50095-.79563-.58936-1.50286-.58936-4.56751v-3.59508h-1.76807Z"/>
    <path d="M230.80957,123.56876c-1.09031,2.79945-2.03328,5.27474-2.12169,5.481-.11787.29468.11787.38308.943.29468,1.03138-.08841,1.14925-.17681,1.67967-1.6502l.55989-1.53233h3.713l.58935,1.53233c.55989,1.47339.6483,1.56179,1.70914,1.6502.97244.0884,1.09031.02947.9135-.442-.11787-.29468-1.09031-2.74051-2.15115-5.481l-1.94488-4.92113h-1.88594Zm3.03518,1.06084a4.22917,4.22917,0,0,1-1.29658,0,6.932,6.932,0,0,1,.53042-1.827l.64829-1.73861.6483,1.73861.64829,1.7386Z"/>
    <path d="M252.79258,119.14858c-.14734.38308-1.06084,2.77-2.06275,5.33368-.97244,2.56371-1.79754,4.71486-1.79754,4.77379,0,.08841.442.14734,1.00191.14734.9135,0,1.03137-.11787,1.56179-1.56179l.58936-1.53233,1.88594-.0884,1.88595-.08841.58935,1.5618c.53042,1.385.70723,1.56179,1.5618,1.6502.61882.05893.943-.02947.943-.26521,0-.20628-.884-2.68158-1.97435-5.481l-2.00381-5.09794h-.97244C253.26407,118.50029,252.96939,118.64763,252.79258,119.14858Zm1.94488,3.91923.61882,1.62073h-1.32605c-1.03138,0-1.29659-.08841-1.17871-.41255.0884-.23574.32414-.943.53042-1.62073s.442-1.20819.55989-1.20819A4.64866,4.64866,0,0,1,254.73746,123.06781Z"/>
  </g>
</svg>
