<svg xmlns="http://www.w3.org/2000/svg" viewBox="0 0 420.33514 231.35294">
  <defs>
    <style>
      .cls-1 {
        fill: none;
        stroke: #4dffc4;
        stroke-miterlimit: 10;
        stroke-width: 2px;
      }
    </style>
  </defs>
  <title>2dart_mobile</title>
  <g id="Capa_1" data-name="Capa 1">
    <g>
      <g>
        <polyline class="cls-1" points="282.101 168.243 285.07 171.214 291.761 195.727 267.24 189.044 264.271 186.072"/>
        <polyline class="cls-1" points="205.907 91.953 161.843 47.888 143.916 65.815 187.98 109.879"/>
        <polyline class="cls-1" points="216.006 137.903 264.933 186.83 282.864 168.906 233.933 119.977"/>
        <path class="cls-1" d="M154.50042,41.47623l-6.84771-6.8477a2.42753,2.42753,0,0,0-3.38838.343l-13.25577,13.2539a2.437,2.437,0,0,0-.3522,3.39751l6.84958,6.8477"/>
      </g>
      <g>
        <polyline class="cls-1" points="155.3 186.853 152.329 189.823 128.574 197.269 136.019 173.511 138.989 170.539"/>
        <polyline class="cls-1" points="248.493 60.823 138.073 171.241 154.603 187.765 265.019 77.348"/>
        <line class="cls-1" x1="256.17529" y1="69.66486" x2="147.34234" y2="178.49945"/>
        <path class="cls-1" d="M284.36912,58.47068l6.84415-6.844a2.431,2.431,0,0,0-.3393-3.39209L277.61614,34.97885a2.43428,2.43428,0,0,0-3.39545-.35032l-6.84789,6.8477"/>
        <rect class="cls-1" x="253.15431" y="49.42968" width="18.52202" height="27.99343" transform="translate(32.02063 204.1495) rotate(-45.00415)"/>
      </g>
    </g>
  </g>
</svg>
