<svg id="Capa_1" data-name="Capa 1" xmlns="http://www.w3.org/2000/svg" viewBox="0 0 189.03596 153.79102">
  <defs>
    <style>
      .cls-1 {
        fill: none;
        stroke: #4dffc4;
        stroke-width: 4px;
      }
    </style>
  </defs>
  <title>art2d_titulo</title>
  <g>
    <g>
      <polyline class="cls-1" points="159.954 124.714 162.655 127.417 168.742 149.716 146.435 143.636 143.735 140.932"/>
      <polyline class="cls-1" points="90.642 55.314 50.558 15.23 34.25 31.537 74.335 71.622"/>
      <polyline class="cls-1" points="99.829 97.115 144.337 141.623 160.648 125.317 116.137 80.807"/>
      <path class="cls-1" d="M43.87871,9.39707,37.6495,3.16786a2.20829,2.20829,0,0,0-3.08234.312L22.50865,15.53672a2.21688,2.21688,0,0,0-.32038,3.09064l6.23092,6.22922"/>
    </g>
    <g>
      <polyline class="cls-1" points="44.606 141.643 41.904 144.345 20.294 151.119 27.066 129.506 29.769 126.802"/>
      <polyline class="cls-1" points="129.382 26.996 28.935 127.441 43.972 142.473 144.415 42.029"/>
      <line class="cls-1" x1="136.37026" y1="35.03969" x2="37.36716" y2="134.04429"/>
      <path class="cls-1" d="M162.01761,24.85658l6.226-6.22582a2.21147,2.21147,0,0,0-.30865-3.08571L155.87456,3.48654a2.21442,2.21442,0,0,0-3.08877-.31868L146.5564,9.39707"/>
      <rect class="cls-1" x="133.62214" y="16.63216" width="16.8491" height="25.46505" transform="translate(20.84631 109.05167) rotate(-45.00415)"/>
    </g>
  </g>
</svg>
