<svg xmlns="http://www.w3.org/2000/svg" viewBox="0 0 420.33514 231.35294">
  <defs>
    <style>
      .cls-1 {
        fill: none;
        stroke: #fff655;
        stroke-miterlimit: 10;
        stroke-width: 2px;
      }
    </style>
  </defs>
  <title>branding_mobile</title>
  <g id="Capa_1" data-name="Capa 1">
    <g>
      <path class="cls-1" d="M179.902,70.12257a30.26731,30.26731,0,1,1,60.53462,0"/>
      <g>
        <g>
          <path class="cls-1" d="M187.71582,124.25h44.83407c.30944-4.23884,1.26232-9.75747,3.933-13.30444,16.542-21.30266,17.60079-41.59671,17.60079-43.03121a43.91519,43.91519,0,0,0-87.83038,0c0,1.4345,1.03265,21.71466,17.59563,43.03121C186.509,114.49248,187.43059,120.01111,187.71582,124.25Z"/>
          <g>
            <line class="cls-1" x1="198.49222" y1="124.12835" x2="189.79874" y2="75.86891"/>
            <line class="cls-1" x1="221.84986" y1="124.13173" x2="230.54174" y2="75.86891"/>
          </g>
          <polyline class="cls-1" points="190.068 79.609 196.765 81.609 203.463 79.609 210.158 81.609 216.858 79.609 223.563 81.609 230.269 79.609"/>
          <line class="cls-1" x1="181.61642" y1="124.76806" x2="238.72406" y2="124.76806"/>
          <line class="cls-1" x1="181.61642" y1="135.86103" x2="238.72406" y2="135.86103"/>
          <path class="cls-1" d="M195.09819,144.30062a18.42011,18.42011,0,0,0,30.14214,0"/>
          <line class="cls-1" x1="188.24425" y1="137.00851" x2="188.24425" y2="125.35934"/>
        </g>
        <line class="cls-1" x1="210.16935" y1="151.2799" x2="210.16935" y2="207.35294"/>
      </g>
      <g>
        <path class="cls-1" d="M200.18915,183.69263c0,.88167-.06944,1.74749-.13567,2.61154a34.21278,34.21278,0,0,1-45.18873-32.45457c0-.88487.06605-1.75088.13567-2.61848a34.21325,34.21325,0,0,1,45.18873,32.46151Z"/>
        <path class="cls-1" d="M220.14955,183.69263c0,.88167.066,1.74749.13211,2.61154a34.2128,34.2128,0,0,0,45.18873-32.45457c0-.88487-.06605-1.75088-.1321-2.61848a34.21327,34.21327,0,0,0-45.18874,32.46151Z"/>
      </g>
    </g>
  </g>
</svg>
