<svg id="Capa_1" data-name="Capa 1" xmlns="http://www.w3.org/2000/svg" viewBox="0 0 138.1404 151.73142">
  <defs>
    <style>
      .cls-1, .cls-2 {
        fill: none;
        stroke: #fff;
        stroke-width: 4px;
      }

      .cls-2 {
        stroke-linejoin: bevel;
      }
    </style>
  </defs>
  <title>contact</title>
  <g>
    <g>
      <g>
        <rect class="cls-1" x="2" y="37.28323" width="134.1404" height="77.2525"/>
        <path class="cls-2" d="M162.37273,39.0532H28.31471l16.75782,14.3L56.8286,63.37729c1.37192,1.17485,3.1876,2.72018,4.99948,4.26535L77.47614,80.99289,90.34121,91.96234a7.99313,7.99313,0,0,0,10.00791,0l12.862-10.96945,15.64745-13.35025c1.81719-1.54517,3.62831-3.0905,5.00615-4.26535l11.75167-10.02414Z" transform="translate(-26.33019 -1.85599)"/>
      </g>
      <line class="cls-1" x1="2.50671" y1="113.99791" x2="47.15474" y2="75.4435"/>
      <line class="cls-1" x1="136.03299" y1="113.99791" x2="91.38117" y2="75.4435"/>
    </g>
    <g>
      <line class="cls-1" x1="69.06087" y1="15.17108" x2="69.06087"/>
      <g>
        <line class="cls-1" x1="45.33831" y1="20.50159" x2="38.92686" y2="6.7528"/>
        <line class="cls-1" x1="92.78495" y1="20.50159" x2="99.1964" y2="6.7528"/>
      </g>
      <line class="cls-1" x1="69.06087" y1="136.56034" x2="69.06087" y2="151.73142"/>
      <g>
        <line class="cls-1" x1="92.78495" y1="131.22983" x2="99.1964" y2="144.97862"/>
        <line class="cls-1" x1="45.33831" y1="131.22983" x2="38.92686" y2="144.97862"/>
      </g>
    </g>
  </g>
</svg>
