<svg id="Capa_1" data-name="Capa 1" xmlns="http://www.w3.org/2000/svg" viewBox="0 0 200 200">
  <defs>
    <style>
      .cls-1 {
        fill: none;
        stroke: #fff;
        stroke-width: 2px;
      }
    </style>
  </defs>
  <title>design</title>
  <g>
    <circle class="cls-1" cx="100.2255" cy="100.0117" r="97.01178" transform="translate(-41.36358 100.16288) rotate(-45)"/>
    <g>
      <g>
        <polygon class="cls-1" points="100.222 173.106 20.147 100.456 100.222 100.456 180.303 100.456 100.222 173.106"/>
        <polygon class="cls-1" points="100.222 173.106 64.926 100.456 100.222 100.456 135.529 100.456 100.222 173.106"/>
      </g>
      <g>
        <polygon class="cls-1" points="20.147 100.665 100.222 100.665 180.303 100.665 158.273 72.266 42.182 72.266 20.147 100.665"/>
        <polygon class="cls-1" points="100.222 71.981 64.926 100.665 100.222 100.665 135.529 100.665 100.222 71.981"/>
        <polygon class="cls-1" points="64.637 100.665 42.246 72.266 42.182 72.266 20.147 100.665 64.637 100.665"/>
        <polygon class="cls-1" points="135.821 100.665 158.216 72.266 158.273 72.266 180.303 100.665 135.821 100.665"/>
      </g>
    </g>
    <g>
      <line class="cls-1" x1="128.24095" y1="21.59346" x2="104.74096" y2="45.09344"/>
      <line class="cls-1" x1="128.24095" y1="45.09344" x2="104.74096" y2="21.59346"/>
    </g>
    <g>
      <line class="cls-1" x1="80.72823" y1="41.13617" x2="66.09205" y2="55.77625"/>
      <line class="cls-1" x1="80.73193" y1="55.77625" x2="66.09205" y2="41.13617"/>
    </g>
  </g>
</svg>
