<svg id="Capa_1" data-name="Capa 1" xmlns="http://www.w3.org/2000/svg" viewBox="0 0 200 200">
  <defs>
    <style>
      .cls-1 {
        fill: none;
        stroke: #fff;
        stroke-width: 2px;
      }
    </style>
  </defs>
  <title>ecommerce</title>
  <g>
    <path class="cls-1" d="M172.06181,65.56774v-12.009l-14.09557-1.17567a42.999,42.999,0,0,0-5.55874-14.40057L161.823,26.8576l-11.2125-11.2162-10.79511,9.13531A42.91613,42.91613,0,0,0,125.69877,18.534L124.48876,4H108.6286l-1.17391,14.09753a42.91786,42.91786,0,0,0-14.40057,5.55873L81.92748,14.23879,70.71108,25.45323l9.13746,10.79511A42.92629,42.92629,0,0,0,73.60392,50.363L59.07379,51.577l-.002,13.99078"/>
    <path class="cls-1" d="M93.63152,65.56774a22.53086,22.53086,0,1,1,43.87237,0"/>
    <g>
      <path class="cls-1" d="M73.13326,177.2638a18.7567,18.7567,0,1,1-18.75494-18.7567A18.75552,18.75552,0,0,1,73.13326,177.2638Z"/>
      <path class="cls-1" d="M166.15067,177.2638a18.75485,18.75485,0,1,1-18.7567-18.7567A18.75464,18.75464,0,0,1,166.15067,177.2638Z"/>
      <line class="cls-1" x1="75.78569" y1="177.2638" x2="128.64098" y2="177.2638"/>
      <polyline class="cls-1" points="8.166 45.033 33.371 52.227 62.784 140.448 57.355 157.958"/>
      <path class="cls-1" d="M174.40379,134.75209a5.74588,5.74588,0,0,1-6.00461,5.69571H62.78383L42.3769,75.2385H191.41308Z"/>
      <line class="cls-1" x1="69.00563" y1="96.86696" x2="165.78109" y2="96.86696"/>
      <line class="cls-1" x1="75.75525" y1="117.87237" x2="159.403" y2="117.87237"/>
    </g>
  </g>
</svg>
