<svg id="Capa_1" data-name="Capa 1" xmlns="http://www.w3.org/2000/svg" viewBox="0 0 200 200">
  <defs>
    <style>
      .cls-1, .cls-2 {
        fill: none;
        stroke: #49a4ff;
        stroke-width: 6px;
      }

      .cls-1 {
        stroke-linejoin: round;
      }
    </style>
  </defs>
  <title>email</title>
  <g>
    <g>
      <path class="cls-1" d="M129.45657,30.64l-4.41172-3.76046-18.0646-15.41181a11.23874,11.23874,0,0,0-14.05407,0L74.85776,26.87957,71.75662,29.5243"/>
      <polyline class="cls-1" points="25.263 69.18 5.91 85.686 5.847 85.686 5.847 85.741 5.827 85.756 5.847 85.756 5.847 194.383 194.036 194.383 194.036 85.756 194.079 85.756 194.036 85.717 194.036 85.686 193.993 85.686 174.342 68.924"/>
      <polyline class="cls-2" points="25.245 89.916 25.245 30.626 173.72 30.626 173.72 89.916"/>
      <g>
        <polyline class="cls-1" points="194.536 89.613 130.043 142.331 69.856 142.331 5.607 89.613"/>
        <g>
          <path class="cls-1" d="M11.43147,192.91733l20.93744-17.83811,15.79748-13.5898c1.85766-1.58987,4.28981-3.68752,6.726-5.78537l15.64816-13.45"/>
          <path class="cls-1" d="M129.36227,142.25408l15.648,13.45c2.43215,2.09785,4.86833,4.1955,6.722,5.78537l15.80554,13.5898,22.5275,19.36511"/>
        </g>
      </g>
    </g>
    <g>
      <path class="cls-2" d="M121.00088,112.32778A32.97464,32.97464,0,1,1,126.63874,65.126"/>
      <path class="cls-2" d="M111.52013,70.62781s-13.54447-3.08945-21.3882,4.27813c-9.43762,8.86495-7.395,22.65525,1.42463,25.19178,8.67816,2.49522,11.99974-4.16387,13.01129-7.07419C105.5792,90.115,111.52013,70.62781,111.52013,70.62781Z"/>
      <path class="cls-2" d="M110.57165,73.95544s-5.80108,20.34905-1.78492,24.00332c11.7656,10.69319,38.85836-17.11411,12.47791-38.146"/>
    </g>
  </g>
</svg>
