<?xml version="1.0" encoding="utf-8"?>
<!-- Generator: Adobe Illustrator 23.0.0, SVG Export Plug-In . SVG Version: 6.00 Build 0)  -->
<svg version="1.1" xmlns="http://www.w3.org/2000/svg" xmlns:xlink="http://www.w3.org/1999/xlink" x="0px" y="0px"
	 viewBox="0 0 200 200" style="enable-background:new 0 0 200 200;" xml:space="preserve">
<style type="text/css">
	.st0{fill:none;stroke:#E4405F;stroke-width:6;stroke-miterlimit:10;}
	.st1{fill:#E4405F;}
	.st2{display:none;}
	.st3{display:inline;fill:none;stroke:#25D366;stroke-width:6;stroke-miterlimit:10;}
</style>
<g id="Capa_2">
	<path class="st0" d="M146.8,191.3H53.2c-24.6,0-44.5-19.9-44.5-44.5V53.2c0-24.6,19.9-44.5,44.5-44.5h93.6
		c24.6,0,44.5,19.9,44.5,44.5v93.6C191.3,171.4,171.4,191.3,146.8,191.3z"/>
	<circle class="st0" cx="100" cy="100" r="41.2"/>
	<circle class="st1" cx="151.6" cy="49.6" r="11.6"/>
</g>
<g id="Capa_1" class="st2">
	<title>whatsapp</title>
	<path class="st3" d="M61.2,175.7c43.9,23,98.1,6,121.1-37.9s6-98.1-37.9-121.1s-98.1-6-121.1,37.9C9.9,80.3,9.7,111,22.8,136.8l0,0
		L7.5,190.4L61,175.8L61.2,175.7z"/>
	<path class="st3" d="M147.8,115.9c-2.5-1.2-14.6-7.2-16.9-8c-2.3-0.8-3.9-1.2-5.6,1.2c-1.6,2.5-6.4,8-7.8,9.7
		c-1.4,1.6-2.9,1.9-5.3,0.6c-2.5-1.2-10.4-3.8-19.9-12.2c-5.4-5-10-10.7-13.7-17.1c-1.4-2.5-0.2-3.8,1.1-5c1.1-1.1,2.5-2.9,3.7-4.3
		c1-1.2,1.8-2.6,2.5-4.1c0.7-1.4,0.6-3-0.2-4.3C85,71,80.1,58.9,78,53.9c-2-4.8-4-4.2-5.6-4.2c-1.4-0.1-3.1-0.1-4.7-0.1
		c-2.5,0.1-4.9,1.2-6.6,3.1c-2.3,2.5-8.6,8.4-8.6,20.6c0,12.1,8.8,23.9,10.1,25.5c1.2,1.6,17.4,26.6,42.2,37.3
		c4.6,2,9.3,3.7,14.1,5.2c5,1.5,10.4,1.9,15.5,1c4.7-0.7,14.6-6,16.7-11.7c2.1-5.8,2.1-10.7,1.4-11.7
		C151.9,117.8,150.2,117.1,147.8,115.9z"/>
</g>
</svg>
