<svg id="BACKGROUND_2" data-name="BACKGROUND 2" xmlns="http://www.w3.org/2000/svg" xmlns:xlink="http://www.w3.org/1999/xlink" viewBox="0 0 750.00001 500">
  <defs>
    <style>
      .cls-1 {
        fill: none;
      }

      .cls-2 {
        clip-path: url(#clip-path);
      }

      .cls-3 {
        fill: #212121;
      }

      .cls-4 {
        fill: #ffed6c;
      }

      .cls-5 {
        fill: #ff9769;
      }
    </style>
    <clipPath id="clip-path">
      <rect class="cls-1" width="750.00001" height="500"/>
    </clipPath>
  </defs>
  <title>intro_bc1</title>
  <g class="cls-2">
    <path class="cls-3" d="M631.77151,482.3086a14.78945,14.78945,0,0,0-7.5371-8.3623,14.73249,14.73249,0,0,0-6.9629-19.6006,14.773,14.773,0,1,0-19.7305,7.0078,14.73323,14.73323,0,0,0,6.9629,19.6016,14.76619,14.76619,0,1,0,27.2676,1.3535Zm-39.8828-29.9863a12.76682,12.76682,0,1,1,23.5595,1.205c-.0107.0235-.0244.044-.0361.0674a14.70965,14.70965,0,0,0-16.8828,6.0137A12.78426,12.78426,0,0,1,591.88871,452.3223Zm22.4716,3.0507a12.68358,12.68358,0,0,1-13.9091,4.9512,12.67164,12.67164,0,0,1,13.9091-4.9512Zm-15.5019,16.5538a12.72689,12.72689,0,0,1,.541-9.8233,14.733,14.733,0,0,0,16.8848-6.0127,12.73405,12.73405,0,0,1,6.0918,17.1055,14.73662,14.73662,0,0,0-16.8848,6.0127A12.78311,12.78311,0,0,1,598.85841,471.9268Zm22.4658,3.0488a12.67023,12.67023,0,0,1-13.9092,4.9521,12.68278,12.68278,0,0,1,13.9092-4.9521Zm.8096,24.3086a12.76642,12.76642,0,0,1-15.8057-17.5117c.0108-.0225.0244-.043.0352-.0655a14.71172,14.71172,0,0,0,16.8828-6.0146,12.75667,12.75667,0,0,1-1.1123,23.5918Z"/>
    <path class="cls-3" d="M94.7227,124.9805H55.4795L75.1016,99.4224Zm-35.1866-2H90.666l-15.5644-20.274Z"/>
    <path class="cls-3" d="M697.55081,128.8896a8.344,8.344,0,1,1,8.3447-8.3437A8.3534,8.3534,0,0,1,697.55081,128.8896Zm0-14.6879a6.344,6.344,0,1,0,6.3447,6.3442A6.35124,6.35124,0,0,0,697.55081,114.2017Z"/>
    <path class="cls-3" d="M576.64361,221.9805l-34.1758-.8526,26.1699-32.3847Zm-30.0704-2.751,27.5157.6865-6.4453-26.7607Z"/>
    <path class="cls-3" d="M149.5791,308.7598l-13.8008-24.2022,22.6631,3.1133Zm-10.0537-21.669,9.7812,17.1543,6.2813-14.9472Z"/>
    <path class="cls-3" d="M79.0186,480.1436,66.4277,455.1572l22.5684,4.293Zm-8.9795-22.2637,8.9404,17.7402,7.085-14.6914Z"/>
    <path class="cls-3" d="M560.56351,114.3848l-5.4229-33.7549,34.0108,3.4824Zm-3.0342-31.5,4.3662,27.1777,23.0156-24.374Z"/>
    <path class="cls-3" d="M466.88669,17.6875A13.75611,13.75611,0,1,1,480.64261,3.93164,13.7717,13.7717,0,0,1,466.88669,17.6875Zm0-25.51221A11.75611,11.75611,0,1,0,478.64261,3.93164,11.77013,11.77013,0,0,0,466.88669-7.82471Z"/>
    <path class="cls-3" d="M428.73339,457.0674a9.91015,9.91015,0,1,1,9.9102-9.9102A9.921,9.921,0,0,1,428.73339,457.0674Zm0-17.8203a7.91015,7.91015,0,1,0,7.9102,7.9101A7.91957,7.91957,0,0,0,428.73339,439.2471Z"/>
    <path class="cls-3" d="M165.3301,32.2407a9.91015,9.91015,0,1,1,9.91011-9.9101A9.92122,9.92122,0,0,1,165.3301,32.2407Zm0-17.8203a7.91015,7.91015,0,1,0,7.91011,7.9102A7.91929,7.91929,0,0,0,165.3301,14.4204Z"/>
    <path class="cls-3" d="M337.64259,409.2373a17.14845,17.14845,0,1,1,17.1484-17.1484A17.168,17.168,0,0,1,337.64259,409.2373Zm0-32.2969a15.14845,15.14845,0,1,0,15.1484,15.1485A15.16606,15.16606,0,0,0,337.64259,376.9404Z"/>
    <path class="cls-3" d="M218.751,340.5186a15.44513,15.44513,0,0,0-28.00489,13.0351,15.40669,15.40669,0,0,0-7.294,20.335,15.44714,15.44714,0,1,0,20.76079,7.4521,15.40663,15.40663,0,0,0,7.293-20.3349,15.42981,15.42981,0,0,0,7.2451-20.4873Zm-16.2002,51.707a13.14372,13.14372,0,1,1-17.97169-16.3203,15.3689,15.3689,0,0,0,17.49511,6.2881A13.054,13.054,0,0,1,202.55079,392.2256Zm-15.752-17.1348a13.11076,13.11076,0,0,1,14.06641,5.0498,13.09307,13.09307,0,0,1-14.06641-5.0498Zm23.05279-3.2041a13.17,13.17,0,0,1-6.7637,7.4375,15.38407,15.38407,0,0,0-17.49709-6.2861,13.1128,13.1128,0,0,1,6.2803-17.4668,15.37807,15.37807,0,0,0,17.49611,6.2851A13.1056,13.1056,0,0,1,209.85159,371.8867ZM194.0947,354.7559a13.09071,13.09071,0,0,1,14.06351,5.0478,13.10849,13.10849,0,0,1-14.06351-5.0478Zm23.05569-3.2061a13.16818,13.16818,0,0,1-6.7715,7.4395,15.36919,15.36919,0,0,0-17.49409-6.2862,13.14353,13.14353,0,1,1,24.26559-1.1533Z"/>
    <path class="cls-3" d="M309.30079,30.6846a16.33836,16.33836,0,1,0-23.3155,0,16.28826,16.28826,0,0,0-.0009,22.8525,16.33982,16.33982,0,1,0,23.3164,0,16.28466,16.28466,0,0,0,0-22.8525ZM297.64259,5.35645a13.8949,13.8949,0,0,1,9.8232,23.72945,16.21829,16.21829,0,0,0-19.6455,0,13.89562,13.89562,0,0,1,9.8223-23.72945ZM305.54,30.6851a13.84,13.84,0,0,1-15.7939,0,13.83722,13.83722,0,0,1,15.7939,0Zm-17.7197,1.5981a16.21634,16.21634,0,0,0,19.6455,0,13.87888,13.87888,0,0,1,.001,19.6548,16.21782,16.21782,0,0,0-19.6465,0,13.88013,13.88013,0,0,1,0-19.6548ZM305.541,53.5376a13.83628,13.83628,0,0,1-15.7959,0,13.83628,13.83628,0,0,1,15.7959,0Zm-7.8984,25.3271a13.8946,13.8946,0,0,1-9.8223-23.728,16.21588,16.21588,0,0,0,19.6465,0,13.89458,13.89458,0,0,1-9.8242,23.728Z"/>
    <polygon class="cls-4" points="45.328 27.946 68.892 32.583 46.935 51.908 45.328 27.946"/>
    <polygon class="cls-4" points="465.173 345.28 501.24 364.275 456.139 385.032 465.173 345.28"/>
    <polygon class="cls-4" points="676.245 175.709 699.327 187.865 670.464 201.148 676.245 175.709"/>
    <polygon class="cls-4" points="224.484 196.252 218.588 207.449 212.144 193.447 224.484 196.252"/>
    <polygon class="cls-4" points="699.927 30.657 693.498 9.927 718.292 19.093 699.927 30.657"/>
    <polygon class="cls-4" points="81.54 463.704 73.009 481.397 62.243 460.033 81.54 463.704"/>
    <polygon class="cls-4" points="562.293 87.748 592.989 90.892 567.188 118.215 562.293 87.748"/>
    <polygon class="cls-3" points="273.662 160.761 262.799 145.956 252.244 159.704 250.658 158.486 262.836 142.624 273.697 157.43 285.06 142.629 296.033 157.435 307.389 142.643 318.635 157.448 329.997 142.648 342.156 158.486 340.57 159.704 329.997 145.932 318.625 160.743 307.381 145.938 296.004 160.756 285.033 145.951 273.662 160.761"/>
    <polygon class="cls-3" points="637.809 348.942 636.59 347.356 648.529 338.191 635.552 328.227 648.524 318.375 635.539 308.406 648.512 298.792 635.533 288.827 648.506 279.31 636.59 270.163 637.809 268.577 651.838 279.348 638.865 288.864 651.832 298.821 638.859 308.434 651.819 318.383 638.847 328.234 651.815 338.191 637.809 348.942"/>
    <polygon class="cls-3" points="617.809 348.942 616.59 347.356 628.529 338.191 615.552 328.227 628.524 318.375 615.539 308.406 628.512 298.792 615.533 288.827 628.506 279.31 616.59 270.163 617.809 268.577 631.838 279.348 618.865 288.864 631.832 298.821 618.859 308.434 631.819 318.383 618.847 328.234 631.815 338.191 617.809 348.942"/>
    <polygon class="cls-3" points="311.477 447.157 299.572 430.931 288.129 445.836 286.144 444.311 299.617 426.763 311.521 442.989 323.976 426.77 336 442.997 348.445 426.786 360.768 443.013 373.223 426.792 386.67 444.311 384.685 445.836 373.223 430.901 360.757 447.134 348.434 430.907 335.965 447.15 323.94 430.923 311.477 447.157"/>
    <polygon class="cls-3" points="31.734 251.407 29.763 237.661 41.992 239.393 40.211 226.97 52.493 228.648 50.713 216.236 63.122 217.785 61.341 205.362 75.102 207.006 74.863 208.992 63.69 207.657 65.474 220.093 53.064 218.545 54.85 230.989 42.568 229.31 44.352 241.746 32.121 240.015 33.715 251.124 31.734 251.407"/>
    <polygon class="cls-3" points="21.734 241.408 19.763 227.661 31.992 229.393 30.211 216.97 42.493 218.648 40.713 206.236 53.122 207.785 51.341 195.362 65.102 197.006 64.863 198.992 53.69 197.657 55.474 210.093 43.064 208.545 44.85 220.989 32.568 219.31 34.352 231.746 22.121 230.015 23.715 241.124 21.734 241.408"/>
    <polygon class="cls-3" points="529.143 178.861 521.643 178.861 521.643 171.361 519.643 171.361 519.643 178.861 512.143 178.861 512.143 180.861 519.643 180.861 519.643 188.361 521.643 188.361 521.643 180.861 529.143 180.861 529.143 178.861"/>
    <polygon class="cls-3" points="226.111 267.942 221.355 267.942 221.355 263.186 220.087 263.186 220.087 267.942 215.33 267.942 215.33 269.211 220.087 269.211 220.087 273.968 221.355 273.968 221.355 269.211 226.111 269.211 226.111 267.942"/>
    <polygon class="cls-3" points="652.186 386.886 644.686 386.886 644.686 379.386 642.686 379.386 642.686 386.886 635.186 386.886 635.186 388.886 642.686 388.886 642.686 396.386 644.686 396.386 644.686 388.886 652.186 388.886 652.186 386.886"/>
    <polygon class="cls-3" points="32.707 423.683 26.973 423.683 26.973 417.947 25.443 417.947 25.443 423.683 19.707 423.683 19.707 425.212 25.443 425.212 25.443 430.947 26.973 430.947 26.973 425.212 32.707 425.212 32.707 423.683"/>
    <polygon class="cls-3" points="201.486 95.865 191.56 95.865 191.56 85.939 188.912 85.939 188.912 95.865 178.986 95.865 178.986 98.513 188.912 98.513 188.912 108.439 191.56 108.439 191.56 98.513 201.486 98.513 201.486 95.865"/>
    <polygon class="cls-3" points="600.675 33.426 593.894 33.426 593.894 26.645 592.085 26.645 592.085 33.426 585.304 33.426 585.304 35.234 592.085 35.234 592.085 42.016 593.894 42.016 593.894 35.234 600.675 35.234 600.675 33.426"/>
    <path class="cls-3" d="M719.32711,414.3857a11.1484,11.1484,0,1,1,11.1485-11.1484A11.16141,11.16141,0,0,1,719.32711,414.3857Zm0-20.997a9.8486,9.8486,0,1,0,9.8487,9.8486A9.86025,9.86025,0,0,0,719.32711,393.3887Z"/>
    <circle class="cls-5" cx="557.41311" cy="273.9678" r="7.6797"/>
    <circle class="cls-5" cx="430.89059" cy="87.7485" r="10.6797"/>
    <path class="cls-5" d="M353.71869,402.3174a16.07565,16.07565,0,1,1-16.0751-16.0752A16.07557,16.07557,0,0,1,353.71869,402.3174Z"/>
    <path class="cls-5" d="M437.25589,452.7227a8.5225,8.5225,0,1,1-8.5215-8.5225A8.52344,8.52344,0,0,1,437.25589,452.7227Z"/>
    <g>
      <path class="cls-5" d="M240.46969,430.1211a3.16038,3.16038,0,1,1-.0224-4.4453A3.14312,3.14312,0,0,1,240.46969,430.1211Z"/>
      <path class="cls-5" d="M220.46969,430.1211a3.16038,3.16038,0,1,1-.0224-4.4453A3.14312,3.14312,0,0,1,220.46969,430.1211Z"/>
      <path class="cls-5" d="M200.46969,430.1211a3.16037,3.16037,0,1,1-.0224-4.4453A3.1431,3.1431,0,0,1,200.46969,430.1211Z"/>
      <path class="cls-5" d="M252.46969,443.1211a3.16038,3.16038,0,1,1-.0224-4.4453A3.14312,3.14312,0,0,1,252.46969,443.1211Z"/>
      <path class="cls-5" d="M232.46969,443.1211a3.16038,3.16038,0,1,1-.0224-4.4453A3.14312,3.14312,0,0,1,232.46969,443.1211Z"/>
      <path class="cls-5" d="M212.46969,443.1211a3.16038,3.16038,0,1,1-.0224-4.4453A3.14312,3.14312,0,0,1,212.46969,443.1211Z"/>
      <path class="cls-5" d="M192.4697,443.1211a3.16038,3.16038,0,1,1-.0224-4.4453A3.14312,3.14312,0,0,1,192.4697,443.1211Z"/>
      <path class="cls-5" d="M240.46969,405.1211a3.16038,3.16038,0,1,1-.0224-4.4453A3.14312,3.14312,0,0,1,240.46969,405.1211Z"/>
      <path class="cls-5" d="M220.46969,405.1211a3.16038,3.16038,0,1,1-.0224-4.4453A3.14312,3.14312,0,0,1,220.46969,405.1211Z"/>
      <path class="cls-5" d="M200.46969,405.1211a3.16037,3.16037,0,1,1-.0224-4.4453A3.1431,3.1431,0,0,1,200.46969,405.1211Z"/>
      <path class="cls-5" d="M252.46969,418.1211a3.16038,3.16038,0,1,1-.0224-4.4453A3.14312,3.14312,0,0,1,252.46969,418.1211Z"/>
      <path class="cls-5" d="M232.46969,418.1211a3.16038,3.16038,0,1,1-.0224-4.4453A3.14312,3.14312,0,0,1,232.46969,418.1211Z"/>
      <path class="cls-5" d="M212.46969,418.1211a3.16038,3.16038,0,1,1-.0224-4.4453A3.14312,3.14312,0,0,1,212.46969,418.1211Z"/>
      <path class="cls-5" d="M192.4697,418.1211a3.16038,3.16038,0,1,1-.0224-4.4453A3.14312,3.14312,0,0,1,192.4697,418.1211Z"/>
      <path class="cls-5" d="M252.46969,390.1211a3.16038,3.16038,0,1,1-.0224-4.4453A3.14312,3.14312,0,0,1,252.46969,390.1211Z"/>
      <path class="cls-5" d="M232.46969,390.1211a3.16038,3.16038,0,1,1-.0224-4.4453A3.14312,3.14312,0,0,1,232.46969,390.1211Z"/>
      <path class="cls-5" d="M212.46969,390.1211a3.16038,3.16038,0,1,1-.0224-4.4453A3.14312,3.14312,0,0,1,212.46969,390.1211Z"/>
      <path class="cls-5" d="M192.4697,390.1211a3.16038,3.16038,0,1,1-.0224-4.4453A3.14312,3.14312,0,0,1,192.4697,390.1211Z"/>
    </g>
    <g>
      <path class="cls-5" d="M703.91991,136.2808a3.16042,3.16042,0,1,1-.0234-4.4454A3.14312,3.14312,0,0,1,703.91991,136.2808Z"/>
      <path class="cls-5" d="M683.91991,136.2808a3.16042,3.16042,0,1,1-.0234-4.4454A3.14312,3.14312,0,0,1,683.91991,136.2808Z"/>
      <path class="cls-5" d="M663.91991,136.2808a3.16042,3.16042,0,1,1-.0234-4.4454A3.14312,3.14312,0,0,1,663.91991,136.2808Z"/>
      <path class="cls-5" d="M715.91991,149.2808a3.16042,3.16042,0,1,1-.0234-4.4454A3.14312,3.14312,0,0,1,715.91991,149.2808Z"/>
      <path class="cls-5" d="M695.91991,149.2808a3.16042,3.16042,0,1,1-.0234-4.4454A3.14312,3.14312,0,0,1,695.91991,149.2808Z"/>
      <path class="cls-5" d="M675.91991,149.2808a3.16042,3.16042,0,1,1-.0234-4.4454A3.14312,3.14312,0,0,1,675.91991,149.2808Z"/>
      <path class="cls-5" d="M655.91991,149.2808a3.16042,3.16042,0,1,1-.0234-4.4454A3.14312,3.14312,0,0,1,655.91991,149.2808Z"/>
      <path class="cls-5" d="M703.91991,111.2808a3.16042,3.16042,0,1,1-.0234-4.4454A3.14312,3.14312,0,0,1,703.91991,111.2808Z"/>
      <path class="cls-5" d="M683.91991,111.2808a3.16042,3.16042,0,1,1-.0234-4.4454A3.14312,3.14312,0,0,1,683.91991,111.2808Z"/>
      <path class="cls-5" d="M663.91991,111.2808a3.16042,3.16042,0,1,1-.0234-4.4454A3.14312,3.14312,0,0,1,663.91991,111.2808Z"/>
      <path class="cls-5" d="M715.91991,124.2808a3.16042,3.16042,0,1,1-.0234-4.4454A3.14312,3.14312,0,0,1,715.91991,124.2808Z"/>
      <path class="cls-5" d="M695.91991,124.2808a3.16042,3.16042,0,1,1-.0234-4.4454A3.14312,3.14312,0,0,1,695.91991,124.2808Z"/>
      <path class="cls-5" d="M675.91991,124.2808a3.16042,3.16042,0,1,1-.0234-4.4454A3.14312,3.14312,0,0,1,675.91991,124.2808Z"/>
      <path class="cls-5" d="M655.91991,124.2808a3.16042,3.16042,0,1,1-.0234-4.4454A3.14312,3.14312,0,0,1,655.91991,124.2808Z"/>
      <path class="cls-5" d="M715.91991,96.2808a3.16042,3.16042,0,1,1-.0234-4.4454A3.14312,3.14312,0,0,1,715.91991,96.2808Z"/>
      <path class="cls-5" d="M695.91991,96.2808a3.16042,3.16042,0,1,1-.0234-4.4454A3.14312,3.14312,0,0,1,695.91991,96.2808Z"/>
      <path class="cls-5" d="M675.91991,96.2808a3.16042,3.16042,0,1,1-.0234-4.4454A3.14312,3.14312,0,0,1,675.91991,96.2808Z"/>
      <path class="cls-5" d="M655.91991,96.2808a3.16042,3.16042,0,1,1-.0234-4.4454A3.14312,3.14312,0,0,1,655.91991,96.2808Z"/>
    </g>
    <g>
      <path class="cls-5" d="M218.91989,33.4224a3.16041,3.16041,0,1,1-.0234-4.4453A3.14312,3.14312,0,0,1,218.91989,33.4224Z"/>
      <path class="cls-5" d="M198.91989,33.4224a3.16041,3.16041,0,1,1-.0234-4.4453A3.14311,3.14311,0,0,1,198.91989,33.4224Z"/>
      <path class="cls-5" d="M178.9199,33.4224a3.16042,3.16042,0,1,1-.0234-4.4453A3.14312,3.14312,0,0,1,178.9199,33.4224Z"/>
      <path class="cls-5" d="M230.91989,46.4229a3.16077,3.16077,0,1,1-.0234-4.4454A3.14231,3.14231,0,0,1,230.91989,46.4229Z"/>
      <path class="cls-5" d="M210.91989,46.4229a3.16077,3.16077,0,1,1-.0234-4.4454A3.14231,3.14231,0,0,1,210.91989,46.4229Z"/>
      <path class="cls-5" d="M190.9199,46.4229a3.16078,3.16078,0,1,1-.0234-4.4454A3.14231,3.14231,0,0,1,190.9199,46.4229Z"/>
      <path class="cls-5" d="M170.9199,46.4229a3.16078,3.16078,0,1,1-.0234-4.4454A3.14231,3.14231,0,0,1,170.9199,46.4229Z"/>
      <path class="cls-5" d="M218.91989,8.42236a3.16038,3.16038,0,1,1-.0234-4.44531A3.14311,3.14311,0,0,1,218.91989,8.42236Z"/>
      <path class="cls-5" d="M198.91989,8.42236a3.16038,3.16038,0,1,1-.0234-4.44531A3.1431,3.1431,0,0,1,198.91989,8.42236Z"/>
      <path class="cls-5" d="M178.9199,8.42236a3.16039,3.16039,0,1,1-.0234-4.44531A3.14311,3.14311,0,0,1,178.9199,8.42236Z"/>
      <path class="cls-5" d="M230.91989,21.4224a3.16041,3.16041,0,1,1-.0234-4.4453A3.14312,3.14312,0,0,1,230.91989,21.4224Z"/>
      <path class="cls-5" d="M210.91989,21.4224a3.16041,3.16041,0,1,1-.0234-4.4453A3.14312,3.14312,0,0,1,210.91989,21.4224Z"/>
      <path class="cls-5" d="M190.9199,21.4224a3.16042,3.16042,0,1,1-.0234-4.4453A3.14312,3.14312,0,0,1,190.9199,21.4224Z"/>
      <path class="cls-5" d="M170.9199,21.4224a3.16042,3.16042,0,1,1-.0234-4.4453A3.14312,3.14312,0,0,1,170.9199,21.4224Z"/>
    </g>
    <path class="cls-5" d="M51.375,161.8535a5.88865,5.88865,0,1,1-5.8887-5.8887A5.88886,5.88886,0,0,1,51.375,161.8535Z"/>
    <g>
      <polygon class="cls-3" points="506.722 498.4 505.267 497.027 506.639 495.572 505.184 494.2 506.557 492.745 509.467 495.49 506.722 498.4"/>
      <polygon class="cls-3" points="480.333 499.172 477.423 496.427 480.168 493.517 481.623 494.89 480.251 496.345 481.706 497.717 480.333 499.172"/>
      <rect class="cls-3" x="483.48276" y="487.86789" width="4.88901" height="2.00057" transform="translate(-203.1279 506.76744) rotate(-46.66087)"/>
      <polygon class="cls-3" points="491.687 484.22 490.231 482.847 492.977 479.936 495.887 482.682 494.514 484.137 493.059 482.765 491.687 484.22"/>
      <rect class="cls-3" x="499.53487" y="485.99639" width="2.00065" height="4.88901" transform="translate(-198.22731 517.44011) rotate(-46.67582)"/>
    </g>
    <g>
      <polygon class="cls-3" points="73.139 348.016 74.193 347.496 74.713 348.55 75.766 348.031 76.285 349.086 74.178 350.123 73.139 348.016"/>
      <rect class="cls-3" x="71.17602" y="342.45715" width="1.17482" height="2.87091" transform="translate(-144.38668 66.96077) rotate(-26.18535)"/>
      <polygon class="cls-3" points="68.295 338.181 70.403 337.143 70.922 338.196 69.869 338.716 70.388 339.77 69.333 340.288 68.295 338.181"/>
      <rect class="cls-3" x="73.09056" y="335.1792" width="2.87157" height="1.17481" transform="translate(-140.65744 67.45834) rotate(-26.21526)"/>
      <polygon class="cls-3" points="78.131 333.337 80.238 332.299 81.276 334.407 80.222 334.926 79.703 333.872 78.649 334.391 78.131 333.337"/>
      <rect class="cls-3" x="82.06469" y="337.09388" width="1.17483" height="2.87178" transform="translate(-140.89574 71.20948) rotate(-26.18385)"/>
      <polygon class="cls-3" points="84.027 342.653 85.082 342.134 86.119 344.241 84.012 345.28 83.494 344.226 84.547 343.706 84.027 342.653"/>
      <rect class="cls-3" x="78.4533" y="346.06807" width="2.87069" height="1.17441" transform="translate(-144.96693 70.98873) rotate(-26.22587)"/>
    </g>
    <g>
      <polygon class="cls-3" points="382.349 36.454 384.69 37.038 384.106 39.381 386.445 39.966 385.859 42.308 381.178 41.136 382.349 36.454"/>
      <rect class="cls-3" x="382.71672" y="26.95743" width="5.89665" height="2.41425" transform="translate(264.57514 395.40834) rotate(-75.92807)"/>
      <polygon class="cls-3" points="387.81 14.607 392.492 15.778 391.907 18.118 389.566 17.534 388.982 19.875 386.64 19.288 387.81 14.607"/>
      <rect class="cls-3" x="399.57599" y="16.14446" width="2.41295" height="5.89853" transform="translate(284.93161 403.24179) rotate(-75.94538)"/>
      <polygon class="cls-3" points="409.657 20.069 414.34 21.239 413.168 25.923 410.826 25.336 411.412 22.995 409.072 22.41 409.657 20.069"/>
      <rect class="cls-3" x="406.90308" y="33.00535" width="5.89842" height="2.41266" transform="translate(277.1331 423.48658) rotate(-75.94533)"/>
      <polygon class="cls-3" points="406.535 42.502 408.877 43.086 407.706 47.767 403.023 46.6 403.611 44.257 405.952 44.841 406.535 42.502"/>
      <rect class="cls-3" x="393.5282" y="40.33213" width="2.41328" height="5.89774" transform="translate(257.06857 415.75494) rotate(-75.97294)"/>
    </g>
    <g>
      <polygon class="cls-3" points="709.971 249.531 711.379 249.23 711.681 250.639 713.089 250.336 713.391 251.744 710.575 252.348 709.971 249.531"/>
      <rect class="cls-3" x="708.84927" y="242.46099" width="1.43968" height="3.51846" transform="translate(-35.37493 153.72043) rotate(-12.06584)"/>
      <polygon class="cls-3" points="707.156 236.395 709.973 235.792 710.273 237.199 708.865 237.502 709.168 238.909 707.76 239.21 707.156 236.395"/>
      <rect class="cls-3" x="713.52402" y="234.66932" width="3.51939" height="1.44067" transform="translate(-33.42905 154.9641) rotate(-12.08452)"/>
      <polygon class="cls-3" points="720.293 233.58 723.109 232.977 723.712 235.792 722.304 236.094 722.003 234.686 720.595 234.988 720.293 233.58"/>
      <rect class="cls-3" x="723.3937" y="239.344" width="1.44013" height="3.51925" transform="translate(-34.47556 157.35438) rotate(-12.11587)"/>
      <polygon class="cls-3" points="724.517 246.415 725.924 246.114 726.527 248.93 723.712 249.533 723.41 248.125 724.818 247.822 724.517 246.415"/>
      <rect class="cls-3" x="716.6416" y="249.21451" width="3.51813" height="1.43958" transform="translate(-36.45524 156.34354) rotate(-12.11523)"/>
    </g>
    <polygon class="cls-3" points="386.67 321.61 381.817 321.61 381.817 316.758 380.522 316.758 380.522 321.61 375.67 321.61 375.67 322.905 380.522 322.905 380.522 327.758 381.817 327.758 381.817 322.905 386.67 322.905 386.67 321.61"/>
    <polygon class="cls-4" points="707.356 461.841 718.896 467.918 704.466 474.559 707.356 461.841"/>
    <g>
      <path class="cls-3" d="M417.21679,143.0688a35.98879,35.98879,0,0,0,2.9961,2.9083h46.918a36.00143,36.00143,0,0,0,2.99612-2.9083Z"/>
      <path class="cls-3" d="M416.13479,95.9771H471.209a36.27577,36.27577,0,0,0-2.7188-2.9083H418.85349A36.2709,36.2709,0,0,0,416.13479,95.9771Z"/>
      <path class="cls-3" d="M457.82421,85.9771a35.88823,35.88823,0,0,0-28.30472,0Z"/>
      <path class="cls-3" d="M410.75289,133.0688q.6417,1.489,1.40732,2.9083h63.0234q.76755-1.41585,1.4072-2.9083Z"/>
      <path class="cls-3" d="M432.85059,153.0688a35.9567,35.9567,0,0,0,21.64262,0Z"/>
      <path class="cls-3" d="M408.08789,123.0688c.11332.9815.2607,1.9527.4521,2.9083h70.26372c.1914-.9556.3389-1.9268.4522-2.9083Z"/>
      <path class="cls-3" d="M411.52439,103.0688q-.7002,1.41945-1.2734,2.9083h66.84182q-.5757-1.48695-1.2735-2.9083Z"/>
      <path class="cls-3" d="M408.31839,113.0688c-.1563.9571-.2715,1.9273-.3516,2.9083H479.377c-.0801-.981-.1954-1.9512-.3516-2.9083Z"/>
    </g>
    <g>
      <path class="cls-3" d="M190.4746,233.9194a22.88627,22.88627,0,0,0,1.9258,1.8692h30.15819a22.88627,22.88627,0,0,0,1.9258-1.8692Z"/>
      <path class="cls-3" d="M189.7783,203.6484h35.40239a23.36485,23.36485,0,0,0-1.7471-1.8696H191.5254A23.3685,23.3685,0,0,0,189.7783,203.6484Z"/>
      <path class="cls-3" d="M216.57621,197.2202a23.07091,23.07091,0,0,0-18.19342,0Z"/>
      <path class="cls-3" d="M186.3184,227.4912q.413.9573.9052,1.8696h40.51169q.4938-.91035.9053-1.8696Z"/>
      <path class="cls-3" d="M200.52339,240.3472a23.11056,23.11056,0,0,0,13.9121,0Z"/>
      <path class="cls-3" d="M184.6055,221.063c.0732.6308.1679,1.2554.291,1.8696h45.166c.123-.6142.2178-1.2388.291-1.8696Z"/>
      <path class="cls-3" d="M186.8145,208.207q-.44985.9126-.8184,1.8697h42.96679q-.37065-.9558-.8184-1.8697Z"/>
      <path class="cls-3" d="M184.7539,214.6353c-.0996.6152-.1738,1.2387-.2266,1.8691h45.90429c-.0527-.6304-.1259-1.2539-.2265-1.8691Z"/>
    </g>
    <g>
      <path class="cls-3" d="M498.25391,439.0254a37.88119,37.88119,0,0,0,3.1387,3.0459h49.1533a37.88119,37.88119,0,0,0,3.1387-3.0459Z"/>
      <path class="cls-3" d="M497.12011,389.6885h57.6992a37.82653,37.82653,0,0,0-2.8486-3.0459h-52.0029A37.63651,37.63651,0,0,0,497.12011,389.6885Z"/>
      <path class="cls-3" d="M540.79591,379.2129a37.59775,37.59775,0,0,0-29.6533,0Z"/>
      <path class="cls-3" d="M491.48141,428.5479c.4473,1.039.9375,2.0576,1.4756,3.0478h66.0264c.5342-.9902,1.0244-2.0088,1.4736-3.0478Z"/>
      <path class="cls-3" d="M514.63181,449.501a37.67691,37.67691,0,0,0,22.6739,0Z"/>
      <path class="cls-3" d="M488.68951,418.0703c.1201,1.0283.2724,2.0469.4726,3.0479h73.6123c.2002-1.001.3565-2.0196.4746-3.0479Z"/>
      <path class="cls-3" d="M492.29,397.1182c-.4882.9912-.9306,2.0088-1.3349,3.0459h70.0273q-.60195-1.55565-1.334-3.0459Z"/>
      <path class="cls-3" d="M488.92971,407.5938c-.1621,1.0029-.2832,2.0205-.3672,3.0468H563.376c-.084-1.0263-.2041-2.0439-.3692-3.0468Z"/>
    </g>
  </g>
</svg>
