<svg id="Capa_1" data-name="Capa 1" xmlns="http://www.w3.org/2000/svg" viewBox="0 0 189.03597 153.79102">
  <defs>
    <style>
      .cls-1, .cls-2 {
        fill: none;
        stroke: #fff;
        stroke-width: 4px;
      }

      .cls-1 {
        stroke-dasharray: 4;
      }
    </style>
  </defs>
  <title>portafolio</title>
  <g>
    <line class="cls-1" x1="74.66979" y1="74.93746" x2="114.36618" y2="74.93746"/>
    <g>
      <path class="cls-2" d="M42.6416,110.617h-10.037c-16.14238,0-24.50444-12.8879-24.50444-29.03048V55.60612" transform="translate(-5.87462 -23)"/>
      <path class="cls-2" d="M192.685,55.41306v25.9804c0,16.13868-8.36187,29.22356-24.50444,29.22356h-10.1343" transform="translate(-5.87462 -23)"/>
    </g>
    <g>
      <g>
        <g>
          <line class="cls-2" x1="57.38763" y1="69.31393" x2="57.38763" y2="24.53873"/>
          <line class="cls-2" x1="41.64489" y1="69.31393" x2="41.64489" y2="24.53873"/>
        </g>
        <g>
          <line class="cls-2" x1="57.38763" y1="150.40472" x2="57.38763" y2="105.62952"/>
          <line class="cls-2" x1="41.64489" y1="150.40472" x2="41.64489" y2="105.62952"/>
        </g>
        <path class="cls-2" d="M40.08843,70.27181h18.8537A3.17616,3.17616,0,0,1,62.11828,73.448v29.89085a3.1742,3.1742,0,0,1-3.1742,3.1742H40.08451a3.17224,3.17224,0,0,1-3.17224-3.17224V73.448A3.17616,3.17616,0,0,1,40.08843,70.27181Z"/>
        <line class="cls-2" x1="49.51724" y1="104.53773" x2="49.51724" y2="93.91568"/>
      </g>
      <g>
        <g>
          <line class="cls-2" x1="147.39206" y1="69.31393" x2="147.39206" y2="24.53873"/>
          <line class="cls-2" x1="131.64932" y1="69.31393" x2="131.64932" y2="24.53873"/>
        </g>
        <g>
          <line class="cls-2" x1="147.39206" y1="150.40472" x2="147.39206" y2="105.62952"/>
          <line class="cls-2" x1="131.64932" y1="150.40472" x2="131.64932" y2="105.62952"/>
        </g>
        <path class="cls-2" d="M157.99733,126.33685a3.17163,3.17163,0,0,1-3.17126,3.17616H135.9665a3.17185,3.17185,0,0,1-3.17518-3.17616V96.446a3.17267,3.17267,0,0,1,3.17518-3.1742h18.85957a3.17245,3.17245,0,0,1,3.17126,3.1742Z" transform="translate(-5.87462 -23)"/>
        <line class="cls-2" x1="139.52265" y1="104.53773" x2="139.52265" y2="93.91568"/>
      </g>
    </g>
    <line class="cls-2" x1="62.00746" y1="87.61702" x2="127.02753" y2="87.61702"/>
    <rect class="cls-2" x="2" y="24.02809" width="185.03597" height="127.76293"/>
    <polyline class="cls-2" points="69.715 14.727 69.715 2 119.321 2 119.321 14.727"/>
  </g>
</svg>
