<svg id="Capa_1" data-name="Capa 1" xmlns="http://www.w3.org/2000/svg" viewBox="0 0 200 200">
  <defs>
    <style>
      .cls-1 {
        fill: none;
        stroke: #fff;
        stroke-width: 2px;
      }
    </style>
  </defs>
  <title>responsive</title>
  <g>
    <g>
      <path class="cls-1" d="M196.94,122.17147V9.084a5.3042,5.3042,0,0,0-5.29725-5.2952H8.90345A5.30069,5.30069,0,0,0,3.6103,9.084V122.17147H96.55578"/>
      <polyline class="cls-1" points="96.556 106.692 18.729 106.692 18.729 19.15 181.621 19.15 181.621 78.003"/>
      <path class="cls-1" d="M96.55578,122.05733H3.62423v16.30979c0,3.12588,3.20008,6.61,6.32391,6.61H96.55578"/>
      <path class="cls-1" d="M78.80335,145.10517c-.33423,4.05439.38812,13.0718-.48649,17.47846-.79838,4.03246-1.35679,4.16853-3.498,5.35729-1.20658.66231-3.246,1.58487-4.955,2.32525h0"/>
      <line class="cls-1" x1="64.55672" y1="169.94014" x2="96.55578" y2="169.94014"/>
    </g>
    <g>
      <path class="cls-1" d="M177.59629,196.23375H110.244a4.00685,4.00685,0,0,1-4.01239-4.00644V94.05077a4.01105,4.01105,0,0,1,4.01239-4.01443h67.35229a4.00848,4.00848,0,0,1,4.00645,4.01443v22.68554"/>
      <polyline class="cls-1" points="144.849 181.931 119.159 181.931 119.159 103.602 170.726 103.602"/>
    </g>
    <g>
      <path class="cls-1" d="M197,193.71034a2.52516,2.52516,0,0,1-2.52567,2.52341H159.1172a2.52556,2.52556,0,0,1-2.52751-2.52341V119.20768a2.52774,2.52774,0,0,1,2.52751-2.52752h35.35713A2.52735,2.52735,0,0,1,197,119.20768Z"/>
      <line class="cls-1" x1="159.51741" y1="181.17871" x2="196.74385" y2="181.17871"/>
    </g>
    <g>
      <g>
        <polyline class="cls-1" points="129.135 54.233 129.127 34.367 109.265 34.365"/>
        <line class="cls-1" x1="125.69331" y1="37.79913" x2="106.24165" y2="57.25468"/>
      </g>
      <g>
        <polyline class="cls-1" points="73.162 70.465 73.17 90.33 93.034 90.332"/>
        <line class="cls-1" x1="76.60391" y1="86.89631" x2="96.05967" y2="67.44076"/>
      </g>
    </g>
  </g>
</svg>
