<svg xmlns="http://www.w3.org/2000/svg" viewBox="0 0 420.33514 231.35294">
  <defs>
    <style>
      .cls-1 {
        fill: none;
        stroke: #b752ff;
        stroke-miterlimit: 10;
        stroke-width: 4px;
      }
    </style>
  </defs>
  <title>video.animation</title>
  <g id="Capa_1" data-name="Capa 1">
    <g>
      <rect class="cls-1" x="109.99094" y="90.53233" width="200.35446" height="99.18598"/>
      <g>
        <line class="cls-1" x1="132.4574" y1="115.04143" x2="287.88012" y2="115.04143"/>
        <line class="cls-1" x1="132.4574" y1="134.9613" x2="287.88012" y2="134.9613"/>
        <line class="cls-1" x1="132.4574" y1="164.37341" x2="287.88012" y2="164.37341"/>
        <line class="cls-1" x1="210.16698" y1="115.35259" x2="210.16698" y2="135.99439"/>
        <line class="cls-1" x1="169.5775" y1="134.9613" x2="169.5775" y2="165.92613"/>
        <line class="cls-1" x1="246.30058" y1="134.9613" x2="246.30058" y2="165.92613"/>
      </g>
      <g>
        <rect class="cls-1" x="109.98167" y="65.99993" width="200.37181" height="24.72494"/>
        <line class="cls-1" x1="119.77556" y1="66.01371" x2="143.97612" y2="90.21427"/>
        <line class="cls-1" x1="157.96488" y1="66.01371" x2="182.16282" y2="90.21427"/>
        <line class="cls-1" x1="196.15278" y1="66.01371" x2="220.34977" y2="90.21427"/>
        <line class="cls-1" x1="234.33734" y1="66.01371" x2="258.53885" y2="90.21427"/>
        <line class="cls-1" x1="272.52524" y1="66.01371" x2="296.72698" y2="90.21427"/>
      </g>
      <g>
        <polyline class="cls-1" points="310.353 66.36 310.353 41.635 109.982 41.635 109.982 66.36"/>
        <line class="cls-1" x1="300.55958" y1="41.64843" x2="276.35903" y2="65.84898"/>
        <line class="cls-1" x1="262.37026" y1="41.64843" x2="238.17232" y2="65.84898"/>
        <line class="cls-1" x1="224.18237" y1="41.64843" x2="199.98538" y2="65.84898"/>
        <line class="cls-1" x1="185.9978" y1="41.64843" x2="161.79629" y2="65.84898"/>
        <line class="cls-1" x1="147.8099" y1="41.64843" x2="123.60816" y2="65.84898"/>
      </g>
    </g>
  </g>
</svg>
