<svg xmlns="http://www.w3.org/2000/svg" viewBox="0 0 420.33514 231.35294">
  <defs>
    <style>
      .cls-1 {
        fill: none;
        stroke: #ff7c48;
        stroke-miterlimit: 10;
        stroke-width: 2px;
      }
    </style>
  </defs>
  <title>webdesign</title>
  <g id="Capa_2" data-name="Capa 2">
    <g>
      <path class="cls-1" d="M222.725,180.01116h7.84759l1.37289-6.40144a46.834,46.834,0,0,0,7.50611-2.27771l4.3505,4.81856,12.85393-7.419-2.23-6.90167a47.35586,47.35586,0,0,0,4.85615-5.29135l6.9015,2.22981,7.42079-12.852-6.04109-5.45885a46.48382,46.48382,0,0,0,1.36939-6.23062l7.94323-1.70229.00332-14.8414-8.80714-1.885a46.35648,46.35648,0,0,0-1.66645-5.3751l6.60794-5.96607-7.42079-12.85376-9.1383,2.95051A47.70657,47.70657,0,0,0,252.7391,91.026l2.89247-8.95226-12.85044-7.42411-6.53292,7.23283a47.00632,47.00632,0,0,0-4.87644-1.25329l-1.98415-9.246h-7.84409m.4268,30.86773a24.93,24.93,0,0,1,0,49.86"/>
      <path class="cls-1" d="M133.11683,30.43634h74.98874a5.35469,5.35469,0,0,1,5.35469,5.35469V193.80751a5.35464,5.35464,0,0,1-5.35464,5.35464H133.11333a5.35464,5.35464,0,0,1-5.35464-5.35464V35.79448a5.35814,5.35814,0,0,1,5.35814-5.35814Z"/>
      <line class="cls-1" x1="204.19887" y1="175.05936" x2="137.02344" y2="175.05936"/>
      <line class="cls-1" x1="137.02344" y1="54.94879" x2="204.19887" y2="54.94879"/>
      <line class="cls-1" x1="156.29403" y1="42.40066" x2="184.92496" y2="42.40066"/>
      <line class="cls-1" x1="167.11259" y1="185.19322" x2="174.1064" y2="185.19322"/>
      <g>
        <line class="cls-1" x1="275.16162" y1="171.71614" x2="275.16162" y2="199.50869"/>
        <line class="cls-1" x1="289.05693" y1="185.61163" x2="261.26613" y2="185.61163"/>
      </g>
      <g>
        <polyline class="cls-1" points="287.906 53.168 287.906 56.665 284.409 56.665"/>
        <line class="cls-1" x1="278.19239" y1="56.6649" x2="231.56637" y2="56.6649"/>
        <polyline class="cls-1" points="228.459 56.665 224.962 56.665 224.962 53.168"/>
        <line class="cls-1" x1="224.96176" y1="46.95102" x2="224.96176" y2="37.62651"/>
        <polyline class="cls-1" points="224.962 34.517 224.962 31.02 228.459 31.02"/>
        <line class="cls-1" x1="234.67565" y1="31.02033" x2="281.30167" y2="31.02033"/>
        <polyline class="cls-1" points="284.409 31.02 287.906 31.02 287.906 34.517"/>
        <line class="cls-1" x1="287.9061" y1="40.73404" x2="287.9061" y2="50.06029"/>
      </g>
      <line class="cls-1" x1="151.96049" y1="143.94073" x2="189.26025" y2="143.94073"/>
      <line class="cls-1" x1="155.45739" y1="156.76389" x2="185.76335" y2="156.76389"/>
      <path class="cls-1" d="M160.11877,109.51454a6.99412,6.99412,0,0,1-6.99381-6.99381V81.53928a6.99413,6.99413,0,0,1,6.99381-6.99382h20.98145a6.99414,6.99414,0,0,1,6.99382,6.99382v20.98145a6.99413,6.99413,0,0,1-6.99382,6.99381"/>
      <g>
        <polygon class="cls-1" points="170.611 108.292 175.01 115.911 179.408 123.528 170.611 123.528 161.813 123.528 166.209 115.911 170.611 108.292"/>
        <line class="cls-1" x1="171.63566" y1="124.60702" x2="171.63566" y2="134.86713"/>
      </g>
    </g>
  </g>
</svg>
