<svg id="Capa_1" data-name="Capa 1" xmlns="http://www.w3.org/2000/svg" viewBox="0 0 189.03596 153.79102">
  <defs>
    <style>
      .cls-1 {
        fill: none;
        stroke: #ff7c48;
        stroke-width: 4px;
      }
    </style>
  </defs>
  <title>webdesign_titulo</title>
  <g>
    <g>
      <line class="cls-1" x1="174.06831" y1="24.06755" x2="174.06831" y2="27.29802"/>
      <line class="cls-1" x1="174.06831" y1="33.49713" x2="174.06831" y2="141.96872"/>
      <polyline class="cls-1" points="174.068 145.068 174.068 148.299 170.838 148.299"/>
      <line class="cls-1" x1="164.20342" y1="148.29866" x2="21.51695" y2="148.29866"/>
      <polyline class="cls-1" points="18.198 148.299 14.968 148.299 14.968 145.068"/>
      <line class="cls-1" x1="14.96766" y1="138.86908" x2="14.96766" y2="30.39766"/>
      <line class="cls-1" x1="14.96766" y1="27.29802" x2="14.96766" y2="24.06755"/>
    </g>
    <g>
      <rect class="cls-1" x="14.96766" y="5.49235" width="159.10065" height="18.5752"/>
      <line class="cls-1" x1="22.23622" y1="14.64589" x2="28.27445" y2="14.64589"/>
      <line class="cls-1" x1="32.69115" y1="14.64589" x2="38.73245" y2="14.64589"/>
      <line class="cls-1" x1="43.14285" y1="14.64589" x2="49.18415" y2="14.64589"/>
    </g>
    <g>
      <polyline class="cls-1" points="77.59 100.271 67.646 92.389 57.699 84.503 67.646 76.616 77.59 68.733"/>
      <polyline class="cls-1" points="111.446 100.271 121.39 92.389 131.337 84.503 121.39 76.616 111.446 68.736"/>
      <line class="cls-1" x1="102.3291" y1="59.87877" x2="87.98759" y2="109.12922"/>
    </g>
  </g>
</svg>
