<svg xmlns="http://www.w3.org/2000/svg" viewBox="0 0 1100.04016 231.35294">
  <defs>
    <style>
      .cls-1 {
        fill: none;
        stroke: #ff7c48;
        stroke-miterlimit: 10;
        stroke-width: 4px;
      }
    </style>
  </defs>
  <title>webdesign</title>
  <g id="Capa_2" data-name="Capa 2">
    <g>
      <g>
        <polyline class="cls-1" points="946.911 191.027 1001.038 191.027 1001.038 50.985 826.234 50.985 826.234 191.027 880.361 191.027"/>
        <rect class="cls-1" x="826.23364" y="30.57633" width="174.8041" height="20.4086"/>
        <line class="cls-1" x1="834.21961" y1="40.63333" x2="840.85383" y2="40.63333"/>
        <line class="cls-1" x1="845.70644" y1="40.63333" x2="852.34405" y2="40.63333"/>
        <line class="cls-1" x1="857.18973" y1="40.63333" x2="863.82735" y2="40.63333"/>
      </g>
      <g>
        <path class="cls-1" d="M892.00009,178.07762h43.202c.30148-4.08473,1.21653-9.4,3.79189-12.81944,15.94074-20.52821,16.95972-40.08408,16.95972-41.46709a42.318,42.318,0,0,0-84.63606,0c0,1.383.9949,20.925,16.95638,41.46709C890.8389,168.67759,891.72289,173.99289,892.00009,178.07762Z"/>
        <path class="cls-1" d="M882.541,123.63174a31.09865,31.09865,0,0,1,31.09472-30.93181"/>
        <g>
          <line class="cls-1" x1="902.38467" y1="177.96156" x2="894.00705" y2="131.4548"/>
          <line class="cls-1" x1="924.89378" y1="177.96511" x2="933.26785" y2="131.4548"/>
        </g>
        <polyline class="cls-1" points="894.267 135.025 900.72 137.025 907.174 135.025 913.625 137.025 920.082 135.025 926.543 137.025 933.004 135.025"/>
        <g>
          <line class="cls-1" x1="886.12152" y1="178.57861" x2="941.15338" y2="178.57861"/>
          <line class="cls-1" x1="886.12152" y1="191.04276" x2="941.15338" y2="191.04276"/>
          <line class="cls-1" x1="895.33805" y1="203.50869" x2="931.93685" y2="203.50869"/>
          <line class="cls-1" x1="892.50622" y1="188.61822" x2="892.50622" y2="179.14703"/>
        </g>
        <g>
          <line class="cls-1" x1="913.63924" y1="65.28444" x2="913.63924" y2="73.67592"/>
          <line class="cls-1" x1="898.55797" y1="67.27064" x2="900.72784" y2="75.37445"/>
          <line class="cls-1" x1="884.5062" y1="73.09028" x2="888.70028" y2="80.35699"/>
          <line class="cls-1" x1="872.43726" y1="82.34993" x2="878.3712" y2="88.28404"/>
          <line class="cls-1" x1="863.17921" y1="94.41567" x2="870.44414" y2="98.61133"/>
          <line class="cls-1" x1="857.35602" y1="108.46904" x2="865.46338" y2="110.64051"/>
          <line class="cls-1" x1="855.37002" y1="123.54851" x2="863.76151" y2="123.54851"/>
          <line class="cls-1" x1="857.35602" y1="138.62798" x2="865.45986" y2="136.4581"/>
          <line class="cls-1" x1="863.17566" y1="152.68134" x2="870.44414" y2="148.48727"/>
          <line class="cls-1" x1="872.43372" y1="164.74868" x2="878.36785" y2="158.81634"/>
          <line class="cls-1" x1="954.83426" y1="164.75223" x2="948.9037" y2="158.81812"/>
          <line class="cls-1" x1="964.09211" y1="152.68471" x2="956.82721" y2="148.48904"/>
          <line class="cls-1" x1="969.91533" y1="138.63312" x2="961.81152" y2="136.46147"/>
          <line class="cls-1" x1="971.90136" y1="123.55365" x2="963.51339" y2="123.55365"/>
          <line class="cls-1" x1="969.91533" y1="108.47418" x2="961.81152" y2="110.64406"/>
          <line class="cls-1" x1="964.09569" y1="94.42082" x2="956.83076" y2="98.61488"/>
          <line class="cls-1" x1="954.83761" y1="82.35348" x2="948.90707" y2="88.28582"/>
          <line class="cls-1" x1="942.77207" y1="73.09366" x2="938.57802" y2="80.36036"/>
          <line class="cls-1" x1="928.72031" y1="67.27224" x2="926.54706" y2="75.37605"/>
        </g>
      </g>
    </g>
  </g>
  <g id="Capa_1" data-name="Capa 1">
    <g>
      <path class="cls-1" d="M195.66625,180.01116h7.84759l1.37288-6.40144a46.83375,46.83375,0,0,0,7.50612-2.27771l4.3505,4.81856,12.85393-7.419-2.23-6.90167a47.35586,47.35586,0,0,0,4.85615-5.29135l6.9015,2.22981,7.42079-12.852-6.04109-5.45885a46.48382,46.48382,0,0,0,1.36939-6.23062l7.94323-1.70229.00332-14.8414-8.80714-1.885a46.36036,46.36036,0,0,0-1.66645-5.3751l6.60793-5.96607-7.42078-12.85376-9.1383,2.95051a47.70657,47.70657,0,0,0-3.71546-3.52768l2.89246-8.95226-12.85043-7.42411-6.53293,7.23283a47.00548,47.00548,0,0,0-4.87643-1.25329l-1.98415-9.246h-7.84409m.4268,30.86773a24.93,24.93,0,0,1,0,49.86"/>
      <path class="cls-1" d="M106.05812,30.43634h74.98874a5.35469,5.35469,0,0,1,5.35469,5.35469V193.80751a5.35464,5.35464,0,0,1-5.35464,5.35464H106.05462A5.35464,5.35464,0,0,1,100.7,193.80751V35.79448A5.35814,5.35814,0,0,1,106.05812,30.43634Z"/>
      <line class="cls-1" x1="177.14016" y1="175.05936" x2="109.96473" y2="175.05936"/>
      <line class="cls-1" x1="109.96473" y1="54.94879" x2="177.14016" y2="54.94879"/>
      <line class="cls-1" x1="129.23532" y1="42.40066" x2="157.86625" y2="42.40066"/>
      <line class="cls-1" x1="140.05388" y1="185.19322" x2="147.04769" y2="185.19322"/>
      <g>
        <line class="cls-1" x1="248.10291" y1="171.71614" x2="248.10291" y2="199.50869"/>
        <line class="cls-1" x1="261.99822" y1="185.61163" x2="234.20742" y2="185.61163"/>
      </g>
      <g>
        <polyline class="cls-1" points="260.847 53.168 260.847 56.665 257.35 56.665"/>
        <line class="cls-1" x1="251.13368" y1="56.6649" x2="204.50766" y2="56.6649"/>
        <polyline class="cls-1" points="201.4 56.665 197.903 56.665 197.903 53.168"/>
        <line class="cls-1" x1="197.90305" y1="46.95102" x2="197.90305" y2="37.62651"/>
        <polyline class="cls-1" points="197.903 34.517 197.903 31.02 201.4 31.02"/>
        <line class="cls-1" x1="207.61693" y1="31.02033" x2="254.24296" y2="31.02033"/>
        <polyline class="cls-1" points="257.35 31.02 260.847 31.02 260.847 34.517"/>
        <line class="cls-1" x1="260.84739" y1="40.73404" x2="260.84739" y2="50.06029"/>
      </g>
      <line class="cls-1" x1="124.90178" y1="143.94073" x2="162.20154" y2="143.94073"/>
      <line class="cls-1" x1="128.39868" y1="156.76389" x2="158.70464" y2="156.76389"/>
      <path class="cls-1" d="M133.06006,109.51454a6.99412,6.99412,0,0,1-6.99381-6.99381V81.53928a6.99413,6.99413,0,0,1,6.99381-6.99382h20.98145a6.99413,6.99413,0,0,1,6.99381,6.99382v20.98145a6.99412,6.99412,0,0,1-6.99381,6.99381"/>
      <g>
        <polygon class="cls-1" points="143.553 108.292 147.951 115.911 152.349 123.528 143.553 123.528 134.754 123.528 139.151 115.911 143.553 108.292"/>
        <line class="cls-1" x1="144.57695" y1="124.60702" x2="144.57695" y2="134.86713"/>
      </g>
    </g>
  </g>
</svg>
