<svg id="Capa_1" data-name="Capa 1" xmlns="http://www.w3.org/2000/svg" viewBox="0 0 200 200">
  <defs>
    <style>
      .cls-1 {
        fill: none;
        stroke: #25d366;
        stroke-miterlimit: 10;
        stroke-width: 6px;
      }
    </style>
  </defs>
  <title>whatsapp</title>
  <path class="cls-1" d="M61.18827,175.73743a89.7234,89.7234,0,1,0-38.40491-38.91285l-.00541.019L7.54359,190.41176l53.42487-14.57264Z"/>
  <path class="cls-1" d="M147.76906,115.90834c-2.46909-1.23505-14.60516-7.20433-16.86691-8.02812-2.26289-.82378-3.90819-1.23516-5.55463,1.23506-1.64542,2.47021-6.37513,8.02822-7.81649,9.67579-1.4391,1.64643-2.87934,1.85263-5.34741.61747-2.46909-1.23505-10.42222-3.84089-19.85049-12.24742A74.37576,74.37576,0,0,1,78.60088,90.066c-1.43967-2.47078-.15279-3.80566,1.08294-5.03642,1.1105-1.105,2.468-2.88206,3.70256-4.32285a16.83692,16.83692,0,0,0,2.46852-4.11721,4.54142,4.54142,0,0,0-.20619-4.32286c-.61646-1.23572-5.55361-13.38161-7.61076-18.322-2.00327-4.812-4.03839-4.16081-5.55361-4.23635-1.43854-.07171-3.08554-.08707-4.731-.08707a9.07067,9.07067,0,0,0-6.58246,3.08825c-2.26233,2.47022-8.63915,8.44063-8.63915,20.58607,0,12.146,8.84489,23.88007,10.07882,25.5265,1.2346,1.64757,17.40624,26.57241,42.1679,37.26057A141.67436,141.67436,0,0,0,118.851,141.281a33.84728,33.84728,0,0,0,15.54694.97815c4.743-.70906,14.604-5.97041,16.66184-11.73463,2.05669-5.76421,2.05669-10.70464,1.44024-11.73349C151.88244,117.7621,150.23713,117.14463,147.76906,115.90834Z"/>
</svg>
