<svg id="Capa_1" data-name="Capa 1" xmlns="http://www.w3.org/2000/svg" viewBox="0 0 200 200">
  <defs>
    <style>
      .cls-1 {
        fill: none;
        stroke: #fff;
        stroke-width: 2px;
      }
    </style>
  </defs>
  <title>design</title>
  <g>
    <path class="cls-1" d="M71.26395,153.53044h57.65921c.40022-5.45314,1.623-12.547,5.05912-17.10959C155.25617,109.02394,156.618,82.92508,156.618,81.07954a56.47628,56.47628,0,0,0-112.95257,0c0,1.84554,1.325,27.9277,22.62608,55.34131C69.71527,140.98342,70.89712,148.0773,71.26395,153.53044Z"/>
    <path class="cls-1" d="M58.644,80.86852A41.50092,41.50092,0,0,1,100.13957,39.585"/>
    <g>
      <line class="cls-1" x1="85.12636" y1="153.3757" x2="73.94248" y2="91.3063"/>
      <line class="cls-1" x1="115.16306" y1="153.37784" x2="126.34201" y2="91.3063"/>
    </g>
    <polyline class="cls-1" points="74.292 96.405 82.904 98.405 91.519 96.405 100.136 98.405 108.75 96.405 117.37 98.405 125.991 96.405"/>
    <g>
      <line class="cls-1" x1="63.41972" y1="154.19713" x2="136.86456" y2="154.19713"/>
      <line class="cls-1" x1="63.41972" y1="168.46404" x2="136.86456" y2="168.46404"/>
      <line class="cls-1" x1="63.41972" y1="182.73309" x2="136.86456" y2="182.73309"/>
      <line class="cls-1" x1="73.40742" y1="197" x2="126.87708" y2="197"/>
      <line class="cls-1" x1="71.94327" y1="182.0664" x2="71.94327" y2="154.95585"/>
    </g>
    <g>
      <line class="cls-1" x1="100.14278" y1="3" x2="100.14278" y2="14.19672"/>
      <line class="cls-1" x1="80.01715" y1="5.64813" x2="82.91505" y2="16.46453"/>
      <line class="cls-1" x1="61.26385" y1="13.41703" x2="66.8621" y2="23.11514"/>
      <line class="cls-1" x1="45.15868" y1="25.77374" x2="53.07696" y2="33.69312"/>
      <line class="cls-1" x1="32.80109" y1="41.87786" x2="42.49899" y2="47.47719"/>
      <line class="cls-1" x1="25.03112" y1="60.63009" x2="35.84838" y2="63.52906"/>
      <line class="cls-1" x1="22.38192" y1="80.75551" x2="33.57971" y2="80.75765"/>
      <line class="cls-1" x1="25.03112" y1="100.88093" x2="35.84624" y2="97.9841"/>
      <line class="cls-1" x1="32.79788" y1="119.6353" x2="42.49599" y2="114.03812"/>
      <line class="cls-1" x1="45.15461" y1="135.74154" x2="53.0729" y2="127.82433"/>
      <line class="cls-1" x1="155.12133" y1="135.74582" x2="147.20518" y2="127.82647"/>
      <line class="cls-1" x1="167.47914" y1="119.64172" x2="157.78315" y2="114.0424"/>
      <line class="cls-1" x1="175.24888" y1="100.88735" x2="164.43376" y2="97.99052"/>
      <line class="cls-1" x1="177.90022" y1="80.76193" x2="166.70371" y2="80.76193"/>
      <line class="cls-1" x1="175.25102" y1="60.63842" x2="164.4359" y2="63.53527"/>
      <line class="cls-1" x1="167.48319" y1="41.88193" x2="157.78722" y2="47.48125"/>
      <line class="cls-1" x1="155.12667" y1="25.77783" x2="147.21053" y2="33.69504"/>
      <line class="cls-1" x1="139.02257" y1="13.42131" x2="133.42517" y2="23.11728"/>
      <line class="cls-1" x1="120.26927" y1="5.65241" x2="117.37223" y2="16.46646"/>
    </g>
  </g>
</svg>
