<svg id="Capa_1" data-name="Capa 1" xmlns="http://www.w3.org/2000/svg" viewBox="0 0 200 200">
  <defs>
    <style>
      .cls-1 {
        fill: none;
        stroke: #fff;
        stroke-width: 2px;
      }
    </style>
  </defs>
  <title>style</title>
  <g>
    <polyline class="cls-1" points="46.453 191.147 71.838 153.08 97.225 115.017 122.61 153.08 147.995 191.147"/>
    <line class="cls-1" x1="97.22484" y1="116.80249" x2="97.22484" y2="190.65291"/>
    <path class="cls-1" d="M106.55214,99.69049a10.28723,10.28723,0,1,1-19.63244,6.15432"/>
    <g>
      <rect class="cls-1" x="37.47658" y="62.04924" width="134.23271" height="35.10876" transform="translate(-21.33941 41.95442) rotate(-20.62929)"/>
      <rect class="cls-1" x="166.71467" y="31.09337" width="21.55538" height="42.13242" transform="translate(-6.99625 65.87502) rotate(-20.62817)"/>
      <rect class="cls-1" x="6.68821" y="99.10129" width="36.25429" height="21.06695" transform="translate(-37.03271 15.77103) rotate(-20.62767)"/>
      <line class="cls-1" x1="86.20601" y1="91.3716" x2="180.65319" y2="55.81566"/>
    </g>
    <line class="cls-1" x1="97.32243" y1="36.3059" x2="105.13397" y2="36.3059"/>
    <line class="cls-1" x1="160.02959" y1="100.97266" x2="167.84114" y2="100.97266"/>
    <line class="cls-1" x1="134.0649" y1="130.85654" x2="141.87645" y2="130.85654"/>
    <line class="cls-1" x1="47.84256" y1="139.67473" x2="55.6541" y2="139.67473"/>
    <path class="cls-1" d="M55.42072,46.35648a18.86243,18.86243,0,0,1-5.123-37.01819,27.09137,27.09137,0,0,0-2.71542-.13953A26.12734,26.12734,0,1,0,73.70965,35.32414a26.46215,26.46215,0,0,0-.14167-2.71366A18.86339,18.86339,0,0,1,55.42072,46.35648Z"/>
  </g>
</svg>
