<svg id="Capa_1" data-name="Capa 1" xmlns="http://www.w3.org/2000/svg" viewBox="0 0 200 200">
  <defs>
    <style>
      .cls-1 {
        fill: none;
        stroke: #fff;
        stroke-width: 2px;
      }
    </style>
  </defs>
  <title>vector</title>
  <g>
    <path class="cls-1" d="M77.58123,74.6621c-.058,4.841-.31882,9.87134-.81012,15.03307a166.39838,166.39838,0,0,1-6.73167,34.37664c8.069,2.93916,15.78347,11.2857,19.88539,22.742a46.563,46.563,0,0,1,2.7421,15.06687h5.824v-.30192"/>
    <path class="cls-1" d="M101.21418,161.57872v.30192h5.82205a46.71771,46.71771,0,0,1,2.7421-15.06687c4.1077-11.45626,11.81657-19.8028,19.89671-22.742a165.99686,165.99686,0,0,1-6.743-34.37664c-.48763-5.16173-.74636-10.19209-.80454-15.03307"/>
    <polyline class="cls-1" points="75.319 17.437 75.319 59.158 124.393 59.158 124.393 17.437"/>
    <rect class="cls-1" x="73.35735" y="58.2429" width="52.99786" height="15.30888"/>
    <line class="cls-1" x1="126.35521" y1="58.2429" x2="73.35735" y2="58.2429"/>
    <path class="cls-1" d="M91.09335,188.85974a85.71146,85.71146,0,0,1-76.93081-85.25661"/>
    <path class="cls-1" d="M185.55,103.60313a85.71055,85.71055,0,0,1-76.65328,85.22664"/>
    <line class="cls-1" x1="107.89898" y1="188.70589" x2="178.91401" y2="188.70589"/>
    <line class="cls-1" x1="21.47001" y1="188.70589" x2="92.48504" y2="188.70589"/>
    <g>
      <rect class="cls-1" x="4.88391" y="87.63029" width="16.5861" height="16.58418"/>
      <rect class="cls-1" x="178.24063" y="87.63029" width="16.58629" height="16.58418"/>
    </g>
    <rect class="cls-1" x="91.56218" y="180.41198" width="16.58822" height="16.58802"/>
    <g>
      <rect class="cls-1" x="5.66792" y="180.41198" width="16.5842" height="16.58802"/>
      <rect class="cls-1" x="177.4622" y="180.41198" width="16.58629" height="16.58802"/>
    </g>
    <line class="cls-1" x1="99.85628" y1="161.97456" x2="99.85628" y2="112.99815"/>
    <circle class="cls-1" cx="99.85628" cy="107.39736" r="6.24209"/>
    <line class="cls-1" x1="112.02529" y1="47.49555" x2="112.02529" y2="17.40483"/>
    <line class="cls-1" x1="112.02529" y1="10.80069" x2="112.02529" y2="3"/>
  </g>
</svg>
